<svg xmlns="http://www.w3.org/2000/svg" id="Layer_1" viewBox="0 0 960 495"><defs><style>      .st0 {        fill: #4c4c4c;      }      .st1 {        fill: #f15e28;      }    </style></defs><path class="st1" d="M444.86,224.22c2.14-4.32,6.33-7.44,10.09-10.43,55.97-44.48,134.41-78.66,205.96-83.62,48.41-3.36,100.3,5.67,145.52,22.23l23.48,8.6c-31.61-18.46-63.97-35.06-98.73-47.94-23.23-8.6-61.48-20.27-83.36-15.24-6.22,1.43-9.91,6.82-8.38,13.04,1.16,4.7,3.53,9.48,5.82,14.31l-29.99,5.19c-6.8-10.64-9.97-24.18-7.45-37.29,2.27-11.82,11.06-20.42,22.48-23.86,28.16-8.48,71.49,4.19,100.07,15.51,54.63,21.62,105.44,51.02,151.9,86.72,11.32,8.69,18.84,18.58,11.7,29.67-5.57,8.64-16.74,9.14-26.99,3.89-60.61-31.06-131.06-50.14-200.69-44.98,14.1,21.91,29.52,42.29,46.06,62.55,2.9,3.55,4.25,7.86,3.4,12.44-.61,3.29-3.74,7.4-7.18,9.47-6.96,4.18-14.69,2.94-19.98-3.32-20.35-24.07-38.64-49.4-55.6-76.21-58.31,11.2-118.26,41.24-164.69,77.23-5.68,4.4-12.91,3.96-18.17.22-5.28-3.76-8.86-10.98-5.29-18.2Z"></path><path class="st0" d="M554.25,325.84l-3.14,11.25-19.61,67.37c-.48,1.66-3.73,3.22-5.24,3.42-1.71.23-5.87-.91-6.43-2.84l-22.94-79.29-12.25,77.68c-.49,3.13-4.66,4.73-6.92,4.37-3.32-.53-5.11-3.76-4.48-7.53l14-83.8c.77-4.59,4.62-7.54,8.29-7.74,3.86-.21,8.42,1.79,9.69,6.27l20.51,72.28,20.45-71.9c1.25-4.39,5.4-6.88,9.3-6.65s7.64,3.12,8.4,7.71l13.98,83.69c.64,3.85-1.2,7.14-4.52,7.61s-6.45-1.46-7.05-5.27l-12.04-76.62Z"></path><path class="st0" d="M128.09,380.23l-41.37-.04-9.3,25.27c-.79,2.16-5.74,2.68-7.54,1.89-2.53-1.11-3.94-4.68-2.65-8.13l31.55-84.24c1.49-3.97,5.08-6.33,8.72-6.31s7.19,2.39,8.67,6.36l32.26,86.88c1.08,2.92-3.23,5.71-5.21,5.86-2.59.21-5.78-1.23-6.82-4.14l-8.31-23.39ZM124.12,369.42l-16.72-47.47-16.79,47.63,33.51-.16Z"></path><path class="st0" d="M746.25,404.69l-1.19-8.12c-4.17,6.32-9.77,9.98-16.79,10.95-12.19,1.68-23.75-4.26-29.57-15.33-6.7-12.75-6.91-28.17-.97-41.3,4.5-9.94,13.46-16.35,24.19-17.43,9.63-.97,18.2,3.27,23.43,11.64l.98-9.06c.21-1.94,5.28-3.16,7.14-2.52,2.26.78,4.12,3.44,4.12,6.43v61.09c0,3.07-1.9,5.81-4.35,6.66-1.89.65-6.65-.77-6.98-3.01ZM742.48,385.86c4.31-9.97,4.17-21.53-.21-30.99-3.23-6.96-9.77-11-16.75-10.93s-13.45,4.09-16.61,11.09c-4.35,9.63-4.31,21.37-.05,31.04,3.14,7.13,9.58,11.15,16.66,11.18s13.7-3.84,16.96-11.38Z"></path><path class="st0" d="M280.34,395.95c18.68,6.01,27.52-10.22,33.7-5.6,6.67,4.99-5.84,17.74-27.79,17.4-12.35-.19-22.93-6.75-27.98-18.15-9.19-20.75-1.83-48.34,18.8-54.64,10.47-3.2,20.39-1.57,28.21,4.73,13.86,11.18,17.29,35.49,7.75,35.52l-46.41.15c.05,8.63,4.5,17.63,13.72,20.59ZM306.17,366.04c-.19-8.65-3.03-14.94-9.14-19.15-5.23-3.6-12.09-3.94-18.48-1.2-4.39,1.89-9.4,6.92-10.65,12.95l-1.57,7.53,39.84-.13Z"></path><path class="st0" d="M414.07,392.47c-5.51,10.05-15.4,15.05-25.69,15.34s-21.28-4.42-27.05-14.2c-7.51-12.74-8-28.71-2.03-42.16,5.33-12.01,16.67-18.46,29.13-18.1,12.5.36,23.4,7.86,27.99,20.36s4.33,26.58-2.35,38.76ZM404.58,385.05c3.77-9.56,3.57-20.26-.19-29.29-3.08-7.41-9.55-11.83-16.9-11.84s-13.57,3.88-16.76,10.91c-4.35,9.59-4.41,20.98-.38,30.73,3.03,7.35,9.79,11.65,17.14,11.63s14.01-4.35,17.09-12.15Z"></path><path class="st0" d="M221.57,395.69c13.39,5.54,23.7-6.53,26.86.21,4.6,9.82-25.4,19.63-42.04,2.81-14.07-14.23-13.63-44.85,2.26-58.13,10.25-8.56,25.18-9.5,36.75-3.19,2.48,1.35,3.74,5.18,3.18,6.52-1.39,3.99-5,4.05-8.26,2.71-5.7-2.55-11.65-3.8-18.29-1.37-4.44,1.63-9.27,6.56-11.32,12.42-4.88,13.98-1.71,32.81,10.86,38.01Z"></path><path class="st0" d="M676.79,401.21c0,3.98-2.45,6.3-5.48,6.59s-6.55-1.91-6.56-5.8l-.09-57.39c-2.86-.01-6.03-.12-8.23-.97-2.92-1.12-2.97-7.27-.07-8.37,2.41-.91,5.66-1.18,8.35-1.42l-.02-14.92c0-3.95,2.18-6.68,5.84-6.92,3.95-.25,6.32,2.72,6.33,7.08l.03,14.78,8.15.93c1.12.13,2.67,2.74,2.79,3.86.14,1.31-.89,4.59-2.13,5.03-2.15.77-5.85.93-8.81.89l-.09,56.63Z"></path><path class="st0" d="M638.54,401.52c0,4.17-3.12,6.32-6.04,6.34-3.7.02-6.03-2.83-6.02-6.87l.03-56.21-7.53-.7c-1.37-.13-2.99-3.24-3.02-4.6s1.5-4.57,2.88-4.72l7.6-.85.06-16.04c.01-3.56,3.14-5.86,6.04-5.89,3.91-.05,6.09,2.84,6.09,7.01l-.02,14.99c3.28.12,6.66.32,8.95,1.34,3.14,1.4,2.49,8.17-.73,8.53l-8.29.93v56.76Z"></path><path class="st0" d="M343.22,400.43c0,4.76-2.09,7.2-5.81,7.35s-6.36-2.43-6.36-6.9l.02-85.77c0-3.64,2.7-6.24,5.41-6.4,3.73-.22,6.74,2.16,6.74,6.33v85.39Z"></path><path class="st0" d="M786.86,401.31c0,4.44-3.26,6.63-6.38,6.49-3.52-.16-5.8-2.88-5.8-6.83v-85.95c0-3.75,2.67-6.23,5.78-6.38,3.41-.17,6.37,2.41,6.37,6.45l.02,86.22Z"></path><path class="st0" d="M183.76,347.46c-7,2.91-11.74,8.89-11.77,16.58l-.15,36.91c-.02,3.92-2.02,6.71-5.43,6.85-4.07.16-6.76-2.47-6.75-6.75l.1-63.14c0-2.13,3.18-4.23,4.84-4.52s6.05.96,6.3,2.73l1.41,9.98c2.84-5.95,7.82-10.86,14.66-12.6,2.87-.73,6.49.99,7.48,3.41.74,1.83-.15,6.17-2.2,7.03l-8.47,3.52Z"></path><path class="st0" d="M456.48,347.04c-7.97,3.07-12.74,9.47-12.76,17.93l-.09,36.05c0,4.09-2.31,6.82-6.13,6.81-3.5-.02-6-2.76-5.99-6.82v-61.06c.01-3.03,1.79-5.64,4.04-6.4,1.92-.65,7.04.5,7.21,2.44l.9,10.1c4.05-5.96,8.19-11.18,15.34-12.58,2.8-.55,6.13.8,7.17,3.04,1.11,2.4,0,6.76-2.67,7.79l-7.02,2.7Z"></path><path class="st0" d="M605.38,400.48c0,4.72-1.98,7.15-6.06,7.33-2.83.13-6.11-2.33-6.11-6.16l-.03-61.28c0-3.81,2.16-6.67,5.25-6.98,4.07-.41,6.95,2.2,6.95,6.61v60.47Z"></path><path class="st0" d="M597.39,312.31c4-1.13,8.13,1.48,8.99,5.15.9,3.85-.92,7.71-5.41,9.02-3.02.88-7.22-.83-8.56-4.38-1.48-3.91.45-8.5,4.98-9.79Z"></path></svg>