<svg xmlns="http://www.w3.org/2000/svg" id="Layer_1" viewBox="0 0 280 160.04"><defs><style>      .st0 {        fill: #0064a7;      }    </style></defs><path class="st0" d="M263.43,129.1v8.48l7.96.04v12.93c-1.56.5-3.2.75-4.84.72-9.69,0-14.66-6.59-14.66-17.32,0-3.76.83-8.47,2.74-11.59,1.12-1.82,2.7-3.3,4.58-4.32,1.88-1.02,3.99-1.52,6.12-1.47,3.57,0,8.09.87,11.34,2.75h1.08v-8.99c-4.06-1.69-8.41-2.58-12.81-2.61-7.27.07-13.57,3.04-17.59,9.71-3.06,4.92-4.33,10.72-4.33,16.45,0,6.66,1.66,13.33,5.48,18.33,4.33,5.65,10.26,7.82,16.82,7.82,4.98-.11,9.92-.94,14.65-2.46v-28.48h-16.57Z"></path><path class="st0" d="M233.43,108.29h-8.61v51.76h8.61v-51.76Z"></path><path class="st0" d="M206.01,107.69c-2.99-.07-4.46,1.85-6.64,4.71l-8.99,16.18-8.99-16.18c-2.19-2.86-3.66-4.78-6.65-4.71-3.12.08-5.55,3.11-5.61,6.65v45.69h7.19l.08-39.9,14.08,22.46,13.89-22.46.08,39.9h7.18v-45.69c-.06-3.54-2.48-6.58-5.61-6.65Z"></path><path class="st0" d="M137.55,117.31h20.26v-9.02h-22.3c-4.78,0-8.6,4.51-8.6,9.98v31.79c0,5.47,3.82,9.98,8.6,9.98h22.3v-9.02h-20.27c-.57-.05-1.1-.31-1.48-.74-.38-.43-.58-.98-.55-1.55v-11.61h16.5v-8.65h-16.5v-8.87c-.02-.57.18-1.13.56-1.56.38-.43.91-.69,1.48-.74Z"></path><path class="st0" d="M110.06,110.21c-3.63-2-7.07-1.77-10.83-1.92h-5.92c-4.78,0-8.66,4.51-8.66,10.06v41.7h8.6v-18.71h6.06c4.08,0,8.28-.66,11.66-3.1,4.26-3.03,5.92-8.21,5.92-13.68,0-5.76-2.17-11.75-6.82-14.34ZM99.74,132.46h-6.5v-12.94c0-1.26,0-2.44,1.09-2.44h5.1c5.48,0,8.67.96,8.67,7.68,0,5.77-4.14,7.69-8.35,7.69Z"></path><path class="st0" d="M54.05,107.69c-1.35.04-2.64.51-3.71,1.33-1.06.82-1.84,1.96-2.22,3.25l-15.42,47.76h8.54l3.88-12.06h17.46l3.82,12.06h9.11l-15.61-47.76c-.89-2.74-3.19-4.59-5.86-4.59ZM47.87,139.19l5.99-19.37,5.99,19.37h-11.98Z"></path><path class="st0" d="M8.6,119.6c-.02-.57.18-1.13.56-1.56.38-.43.91-.69,1.48-.74h20.39v-9.02H8.66C3.88,108.29,0,112.8,0,118.27v41.78h8.6v-22.55h16.5v-8.95H8.6v-8.95Z"></path><path class="st0" d="M121.78,40.7c4.09-7.23,9.59-12.74,14.72-16.23.46-.32.92-.61,1.38-.89,1.91-1.22,3.97-2.2,6.13-2.9,2.22-.77,4.28-.37,5.71,0,6.51,2,16.3,9.46,22.54,20.47.82,1.46,1.58,2.9,2.26,4.32.19-.41.38-.8.55-1.2.02-.02.04-.05.06-.08.02-.06.04-.12.07-.17-.6-1.16-1.24-2.34-1.91-3.52-6.87-12.12-15.87-20.76-23.03-22.97-1.57-.41-3.84-.85-6.29,0-2.65.81-5.55,2.51-8.49,4.93-.43.36-.87.73-1.3,1.11-4.62,4.11-9.28,9.94-13.24,16.92-2.21,3.88-4.08,7.96-5.57,12.17.28.96.56,1.9.86,2.83,1.09-5.18,2.97-10.17,5.57-14.78Z"></path><path class="st0" d="M178.42,50.97c-.34.52-.69,1.04-1.06,1.56,3.29,10.22,2.27,18.69-3,23.39-.02.01-.03.02-.05.03-5.23,4.4-15.41,9.44-27.31,9.44-3.98-.01-7.94-.55-11.77-1.59-.85-.23-1.69-.48-2.5-.75-5.79-1.9-10.54-4.67-13.51-7.24-2.48-2.42-2.77-3.49-3.4-5.5-.21-.97-.36-1.96-.45-2.95-.79-2.25-1.49-4.65-2.12-7.18-.94,4.63-1.07,8.77-.35,12,.7,2.21,1.02,3.39,3.75,6.06,2.77,2.39,6.9,4.41,11.93,5.86,1.17.34,2.39.64,3.65.92,4.88,1.02,9.86,1.53,14.84,1.51,13.11,0,24.5-3.3,30.25-8.14.02,0,.04-.02.06-.03,6.15-5.48,5.96-15.36,1.05-27.4Z"></path><path class="st0" d="M159.22,14.64c-11.44-7.75-23.27-11.41-30.65-10.14-1.59.34-3.81.98-5.63,2.85-2.15,2.06-4.13,5.15-5.78,8.99.8.01,1.61.04,2.44.09,1.29-2.3,2.9-4.42,4.77-6.29,1.66-1.69,3.68-2.27,5.12-2.58,6.7-1.16,18.73,1.09,29.11,8.13,14.01,9.49,20.4,20.8,17.27,29.65-.07.19-.14.38-.21.56,0,.02-.02.03-.03.05-.14.31-.28.63-.44.95-1.77,3.66-4.82,8.1-9.09,12.18-.99,1.57-2.11,3.15-3.37,4.76,6.14-3.96,11.05-8.44,14.14-12.74.35-.49.68-.98.99-1.46.58-.91,1.09-1.86,1.52-2.85.01-.02.03-.03.04-.05,3.98-9.84-4.45-21.41-20.2-32.08Z"></path><path class="st0" d="M126.2,70.78c-3.28-1.04-4-1.87-5.44-3.38-1.82-2.27-3.59-5.59-4.97-9.62-.37-1.08-.71-2.21-1.02-3.39-2.76-10.56-2.09-21.71,1.89-31.87-.59.04-1.16.08-1.73.14-1.43,5.13-2.31,10.39-2.61,15.7-.45,7.26.09,14.07,1.39,19.75.4,1.8.92,3.56,1.54,5.29,1.03,2.83,2.28,5.2,3.72,6.99,1.59,1.66,2.39,2.58,6,3.73,6.58,1.66,16.87.01,27.59-4.8.54-.67,1.06-1.34,1.57-2.01-10.45,4.91-21.57,5.06-27.93,3.45Z"></path><path class="st0" d="M116.55,17.81c-1.48,0-2.96.16-4.41.48-1.56.44-3.74,1.21-5.45,3.19-5.14,5.55-8.71,17.61-8.74,31.61-.03,13.93,3.47,25.97,8.55,31.57,1.68,1.56,2.54,2.42,6.21,3.35,4.53.85,10.68.07,17.43-2.24-1.56-.36-3.09-.74-4.58-1.14-4.59.65-8.73.54-11.8-.04-3.33-.84-4.11-1.62-5.64-3.04-4.61-5.09-9.32-16.06-9.3-28.71.03-12.71,4.81-23.62,9.48-28.66,1.55-1.8,3.53-2.5,4.95-2.9.73-.17,1.47-.3,2.22-.39.62-.07,1.26-.13,1.94-.16,4.29-.2,9.69.49,15.28,2.31.47-.41.94-.81,1.4-1.2-5.53-2.3-10.8-3.65-15.3-3.97-.77-.05-1.51-.08-2.23-.07Z"></path><path class="st0" d="M143.35,26.51c-1.3-.77-2.6-1.49-3.9-2.16-.43.27-.85.55-1.28.83,1.58.72,3.12,1.52,4.62,2.41,14.86,8.78,21.91,19.96,18.83,29.1,0,.02-.02.03-.03.05-1.31,3.38-3.07,6.56-5.23,9.47-.52.71-1.07,1.42-1.65,2.13-3.41,4.17-7.54,7.71-12.18,10.46-2.37,1.38-4.86,2.55-7.44,3.47.7.22,1.4.43,2.12.63,1.97-.93,3.96-1.98,5.95-3.14,7.5-4.39,13.65-9.65,17.72-14.77.88-1.1,1.7-2.26,2.44-3.45.83-1.33,1.53-2.74,2.09-4.2.01-.02.02-.03.03-.05,3.39-10.06-5.72-21.1-22.08-30.77Z"></path></svg>