<svg xmlns="http://www.w3.org/2000/svg" id="Camada_1" viewBox="0 0 120 60"><defs><style>      .st0 {        fill: #e8388c;      }    </style></defs><path class="st0" d="M27.7,10.53c-1.66,0-2.9,1.23-2.9,2.95v32.72c0,1.71,1.23,2.95,2.9,2.95s2.9-1.23,2.9-2.95V13.48c0-1.71-1.23-2.95-2.9-2.95ZM18.63,16.05c1.93-.16,3.01-1.18,3.01-2.84,0-1.5-.96-2.68-3.11-2.68-5.47,0-9.45,4.18-9.45,9.8v1.18c0,.32-.22.53-.54.53h-.7c-1.61,0-2.84,1.18-2.84,2.73s1.23,2.73,2.84,2.73h.7c.32,0,.54.22.54.53v18.16c0,1.71,1.23,2.95,2.9,2.95s2.9-1.23,2.9-2.95v-18.16c0-.32.22-.53.54-.53h3.22c1.61,0,2.84-1.18,2.84-2.73s-1.23-2.73-2.84-2.73h-3.22c-.32,0-.54-.22-.54-.53v-1.34c0-2.46,1.34-3.91,3.76-4.12h0ZM59.95,21.72c-1.66,0-2.9,1.23-2.9,2.95v.43c0,.48-.32.64-.64.22-1.83-2.41-4.56-3.91-8.64-3.91-7.51,0-13.41,6.21-13.41,14.03s5.8,14.03,13.36,14.03c4.13,0,6.87-1.55,8.69-4.02.32-.43.64-.27.64.22v.53c0,1.71,1.23,2.95,2.9,2.95s2.9-1.23,2.9-2.95v-21.53c0-1.71-1.23-2.95-2.9-2.95h0ZM48.68,44.11c-4.94,0-8.42-3.64-8.42-8.68s3.43-8.68,8.42-8.68,8.42,3.64,8.42,8.68-3.43,8.68-8.42,8.68ZM79.91,33.35l-4.83-1.39c-2.15-.64-2.79-1.39-2.79-2.62,0-1.66,1.61-2.68,4.13-2.68,2.09,0,3.65.8,5.04,1.82,1.4,1.02,3.17.86,4.02-.32.86-1.12.91-2.73-.43-3.91-2.04-1.77-4.83-2.84-8.69-2.84-5.2,0-9.77,2.95-9.77,8.19,0,4.18,2.9,6.43,6.55,7.5l4.83,1.39c2.09.59,3.17,1.28,3.17,2.73,0,1.98-1.72,3-4.78,3-2.09,0-3.7-.8-4.88-2.03-1.02-1.02-2.63-1.23-3.92-.27-1.23.96-1.5,2.78-.32,4.07,2.15,2.36,5.69,3.48,9.12,3.48,5.15,0,10.46-2.46,10.46-8.52,0-4.28-2.74-6.37-6.92-7.6h0ZM104.7,21.4c-3.65,0-6.12,1.28-7.67,3.43-.27.38-.64.27-.64-.22v-11.14c0-1.71-1.23-2.95-2.9-2.95s-2.9,1.23-2.9,2.95v32.72c0,1.71,1.23,2.95,2.9,2.95s2.9-1.23,2.9-2.95v-12c0-4.82,2.74-7.44,6.92-7.44,3.76,0,5.9,2.25,5.9,6.21v13.23c0,1.71,1.23,2.95,2.9,2.95s2.9-1.23,2.9-2.95v-13.82c0-6.59-3.86-10.98-10.3-10.98h0Z"></path></svg>