<svg xmlns="http://www.w3.org/2000/svg" id="Layer_1" viewBox="0 0 383.46 67.03"><defs><style>      .st0 {        fill: #1526ff;      }    </style></defs><path class="st0" d="M232.17,50.5c.12.35.12.62,0,.8-.04.06-.15.23-.56.23h-13c-.23,0-.4-.07-.5-.2-.08-.11-.18-.32-.09-.83l6.53-17.84c.12-.33.31-.53.52-.53.16,0,.36.12.46.53l6.65,17.85h-.01ZM245.91,61.87l-14.54-37.84c-.48-1.26-1.63-2.07-2.92-2.07h-6.84c-1.29,0-2.44.82-2.92,2.09l-15.26,40.15-.2.56c-.38,1.04.39,2.14,1.5,2.14h6.19l2.6-7.67h23.14l2.58,7.4.07.27h6.16c1.12,0,1.89-1.11,1.5-2.16l-1.07-2.86h0Z"></path><path class="st0" d="M202.02,54.19l-3.43-2.83c-.43-.34-.85-.48-1.25-.43-.54.07-.97.48-1.23.82l-.04.07c-1.55,2.46-3.5,4.29-5.8,5.43-2.32,1.14-5.29,1.72-8.84,1.72-4.51,0-8.1-1.08-10.67-3.21-2.56-2.13-3.81-5.41-3.81-10.04v-2.52c.02-8.75,4.89-13.19,14.48-13.19,6.51,0,11.27,2.22,14.16,6.63l.06.07c.82.88,1.68.95,2.57.2l3.38-3.16c.4-.33.61-.67.67-1.08.06-.43-.07-.89-.38-1.35-3.88-6.23-10.76-9.38-20.46-9.38-14.99,0-22.27,6.97-22.27,21.31v2.4c0,14.38,7.29,21.38,22.27,21.38,9.63,0,16.67-3.45,20.89-10.23l.07-.09c.29-.34.41-.79.34-1.3-.07-.5-.3-.92-.7-1.22"></path><path class="st0" d="M290.51,21.94h-4.73c-.44,0-.83.18-1.13.53-.32.37-.48.81-.48,1.33v25.02c0,.91-.6,1.45-1.17,1.64-.57.2-1.37.15-1.94-.56l-21.81-27.46c-.2-.34-.54-.5-1.02-.5h-5.81c-.43,0-.8.18-1.09.53-.3.36-.47.82-.47,1.33v41.26c0,.51.16.96.47,1.32.3.35.67.53,1.09.53h4.79c.45,0,.83-.18,1.13-.53.32-.37.48-.81.48-1.33v-30.11l24.91,31.46c.2.34.54.51,1.02.51h5.75c.43,0,.8-.18,1.12-.53.33-.37.5-.82.5-1.33V23.79c0-.54-.17-.99-.5-1.35-.31-.33-.7-.51-1.11-.51"></path><path class="st0" d="M345.95,21.94h-4.96c-.43,0-.8.18-1.09.53-.31.36-.47.82-.47,1.33v41.26c0,.51.16.96.47,1.32.3.35.67.53,1.09.53h4.96c.45,0,.82-.18,1.11-.54.29-.36.45-.82.45-1.32V23.79c0-.53-.16-.99-.47-1.35-.3-.34-.66-.51-1.09-.51"></path><path class="st0" d="M382.95,59.01c-.32-.34-.71-.52-1.13-.52h-18.09c-1.38,0-2.5-1.12-2.5-2.51V23.8c0-.54-.16-.99-.47-1.35-.3-.34-.66-.51-1.09-.51h-4.96c-.43,0-.8.18-1.09.53-.31.37-.47.81-.47,1.33v41.26c0,.51.16.96.47,1.33.3.35.67.53,1.09.53h27.11c.44,0,.83-.18,1.14-.52.33-.37.5-.82.5-1.33v-4.71c0-.52-.17-.97-.52-1.34"></path><path class="st0" d="M147.86,36.53c0,2.52-.66,4.36-2.02,5.62-1.37,1.27-3.32,1.91-5.79,1.91h-16.62v-11.49c.04-.41.35-2.43,2.53-2.43h14.09c2.59,0,4.57.48,5.89,1.42,1.29.92,1.92,2.55,1.92,4.97M156,36.53c0-5.24-1.3-9.03-3.86-11.26-2.53-2.21-6.4-3.33-11.5-3.33h-23.55c-.43,0-.8.18-1.09.53-.3.36-.47.82-.47,1.32v41.26c0,.51.16.96.47,1.32.3.35.66.53,1.09.53h4.73c.42,0,.8-.18,1.12-.52.33-.37.5-.81.5-1.33v-13h14.54l9.12,13.61c.59.83,1.41,1.25,2.45,1.25h3.94c.86,0,1.47-.4,1.81-1.18.35-.81.23-1.65-.34-2.41l-8.33-12.28.82-.29c5.68-2.01,8.57-6.8,8.57-14.23"></path><path class="st0" d="M334.33,22.69h0l.27-.25c-.31-.33-.69-.5-1.11-.5h-36.13c-.42,0-.8.18-1.12.53-.33.37-.5.81-.5,1.33v4.55c0,.54.17.99.51,1.32.31.31.69.47,1.11.47h14.03v34.92c0,.52.17.96.5,1.33.31.35.69.52,1.11.52h4.9c.45,0,.83-.18,1.13-.53.32-.37.48-.81.48-1.33v-32.73c.27-1.39,1.18-2.19,2.5-2.19h11.47c.42,0,.8-.17,1.11-.49.34-.35.51-.79.51-1.31v-4.55c0-.54-.17-.99-.5-1.35l-.27.25h0Z"></path><path class="st0" d="M110.3,58.48h-21.56v-9.71h6.7c.72,0,1.3-.68,1.3-1.51v-6.03c0-.83-.58-1.51-1.3-1.51h-6.7v-7.35c.25-1.42,1.16-2.23,2.51-2.23h18.81c.43,0,.79-.17,1.09-.49.31-.35.47-.78.47-1.3v-4.55c0-.54-.16-.99-.47-1.35-.3-.34-.66-.51-1.09-.51h-27.76c-.47,0-.9.2-1.19.55-.3.36-.45.81-.45,1.31v15.93h-6.41c-.72,0-1.3.68-1.3,1.51v6.03c0,.83.58,1.51,1.3,1.51h6.38l.04.67v14.69c0,1.03.19,1.73.59,2.17.14.15.56.62,1.88.62h27.17c.43,0,.8-.16,1.1-.49.33-.35.52-.9.52-1.5v-4.56c0-.54-.17-1-.51-1.37-.33-.35-.7-.52-1.11-.52"></path><path class="st0" d="M66.05,21.94h-5.75c-.48,0-.82.17-1.01.48l-22.36,28.25c-.38.47-.98.66-1.53.46-.58-.2-.98-.78-.98-1.42v-25.91c0-.52-.17-.97-.5-1.33-.32-.35-.69-.52-1.12-.52h-5.75c-.48,0-.82.17-1.01.48L.78,53.68c-.41.51-.64,1.17-.65,1.85l-.13,9.83c0,.6.25,1.06.65,1.21.33.13.69.02.98-.3l22.26-28.01c.38-.47.98-.65,1.53-.46.58.2.98.78.98,1.42v25.76c0,.49.13.94.37,1.27.31.44.71.66,1.19.66h5.77c.6,0,.82-.22,1.12-.6l22.34-28.11c.37-.47.98-.65,1.53-.46.58.2.98.78.98,1.42v25.77c0,.59.19,1.13.52,1.49.3.32.67.49,1.1.49h4.65c.41,0,.79-.14,1.07-.39.42-.37.63-.86.63-1.47V23.8c0-.52-.17-.97-.5-1.33-.32-.35-.69-.52-1.12-.52"></path><path class="st0" d="M35.73,10.61c1.09,0,1.64-.44,1.64-1.33,0-.79-.49-1.19-1.49-1.19h-6.12c-.14,0-.22.08-.21.22v2.08c-.01.15.07.21.21.21h5.97ZM34.96,5.73c.88,0,1.45-.47,1.45-1.21s-.44-1.07-1.33-1.07h-5.31c-.14,0-.22.08-.21.22v1.84c-.01.15.07.22.21.22,0,0,5.19,0,5.19,0ZM26.8,13.73c-.35,0-.59-.25-.59-.59V.95c0-.35.25-.59.59-.59h8.88c2.67,0,4.16,1.17,4.16,3.31,0,1.27-.49,2.21-1.47,2.82-.13.11-.13.18.02.24,1.51.43,2.42,1.57,2.42,3.07,0,2.62-1.67,3.93-4.5,3.93,0,0-9.51,0-9.51,0Z"></path><path class="st0" d="M52.49,9c.18,0,.24-.09.17-.26l-2.18-4.97c-.05-.18-.22-.18-.3,0l-2.14,4.97c-.04.17.02.26.18.26h4.27ZM43.28,13.73c-.26,0-.45-.1-.58-.3-.13-.19-.14-.41-.04-.65L48.07.65c.11-.21.27-.32.49-.31h3.57c.24,0,.4.11.47.31l5.47,12.13c.2.47-.08.95-.61.95h-2.42c-.24,0-.41-.12-.49-.36l-.64-1.46c-.04-.11-.13-.15-.25-.16h-6.58c-.13,0-.21.06-.26.16l-.63,1.46c-.09.24-.26.36-.5.36h-2.41Z"></path><path class="st0" d="M74.48.36c.35,0,.59.24.59.59v12.19c0,.35-.25.59-.59.59h-2.62c-.17,0-.3-.06-.38-.17l-6.91-8.01c-.11-.15-.28-.11-.28.1v7.5c0,.35-.25.59-.59.59h-2.17c-.35,0-.59-.25-.59-.59V.95c0-.35.25-.59.59-.59h2.62c.16,0,.29.05.38.15l6.89,8c.14.14.28.09.28-.12V.95c0-.35.25-.59.59-.59h2.19Z"></path><path class="st0" d="M93.3,10.14c.3.2.33.57.13.83-1.59,2.08-4.03,3.11-7.35,3.11-5.24,0-7.86-2.23-7.86-6.71v-.68C78.21,2.23,80.83,0,86.08,0,89.41,0,91.79.92,93.21,2.77c.2.26.16.63-.1.81l-1.64,1.41c-.34.28-.69.24-1.03-.1-1.02-1.15-2.47-1.72-4.35-1.73-2.95,0-4.42,1.17-4.42,3.51v.74c0,2.33,1.47,3.5,4.42,3.5,2.08,0,3.6-.62,4.56-1.86.32-.36.66-.41,1.03-.14l1.64,1.23h-.02Z"></path><path class="st0" d="M106.87,10.09c.86-.55,1.3-1.44,1.3-2.68v-.74c0-2.33-1.58-3.5-4.73-3.51-1.34,0-2.4.23-3.29.74-.9.51-1.41,1.48-1.41,2.77v.74c0,1.25.44,2.14,1.31,2.68.86.55,1.99.82,3.4.82s2.57-.27,3.43-.82M95.3,7.37v-.68C95.3,2.31,98.03,0,103.44,0s8.17,2.31,8.17,6.69v.68c0,4.41-2.73,6.71-8.17,6.71s-8.14-2.23-8.14-6.71"></path></svg>