<svg xmlns="http://www.w3.org/2000/svg" xmlns:xlink="http://www.w3.org/1999/xlink" id="Camada_1" viewBox="0 0 120 60"><defs><style>      .st0 {        fill: url(#Gradiente_sem_nome_12);      }      .st1 {        fill: #feffff;      }    </style><linearGradient id="Gradiente_sem_nome_12" data-name="Gradiente sem nome 12" x1="60" y1="57.21" x2="60" y2="2.79" gradientUnits="userSpaceOnUse"><stop offset="0" stop-color="#0a6bb4"></stop><stop offset="1" stop-color="#1aa9e2"></stop></linearGradient></defs><polygon class="st0" points="5 2.79 5 57.21 60.29 57.21 115 3.08 5 2.79"></polygon><path class="st1" d="M6.24,24.81c-.01-.61-.02-1.23-.03-1.84-.01-1.46.3-2.85.94-4.17.91-1.64,2.21-2.92,3.77-3.93,1.67-.97,3.45-1.61,5.37-1.89,1.93-.28,3.85-.3,5.79-.1,2.63.28,5.17.89,7.64,1.83.63.24,1.25.53,1.87.8-.06.17-.1.35-.19.51-.73,1.31-1.47,2.61-2.2,3.92-.31.52-.66,1.02-.92,1.56-.24.49-.47.53-.95.3-2.66-1.31-5.47-1.97-8.44-1.84-1.15.05-2.27.25-3.14,1.09-.7.67-.75,1.48-.06,2.15.46.45,1.05.78,1.58,1.17.08.04.16.08.24.13.03.02.06.05.09.07.04.01.08.03.12.04.15.07.3.15.46.22.25.12.5.26.76.36,2.54.95,5.09,1.9,7.63,2.84.39.23.78.45,1.16.7,1.88,1.2,3.39,2.71,4.01,4.93.08.27.15.55.25.94.84-2.27,1.63-4.43,2.43-6.58.42-1.13.85-2.26,1.27-3.39.02-.04.05-.08.07-.12.02-.07.04-.15.06-.22.48-1.29.97-2.58,1.45-3.87.03-.08.06-.15.09-.23,0-.04.02-.07.03-.11.55-1.44,1.1-2.89,1.65-4.33.03-.03.04-.07.03-.11.02-.03.03-.07.03-.11.23-.61.48-1.22.67-1.84.09-.31.24-.42.55-.42,2.82,0,5.65.01,8.47,0,.38,0,.54.15.65.48.08.27.22.51.33.77.42,1.13.84,2.27,1.25,3.4.6,1.63,1.19,3.26,1.79,4.89.73,1.97,1.45,3.94,2.18,5.91.78,2.16,1.56,4.32,2.34,6.47.4,1.1.81,2.21,1.22,3.31.03,0,.06-.02.08-.02v-10.12c0-1.89,0-3.79,0-5.68,0-1.7,0-3.41,0-5.11,0-1.1,0-2.2,0-3.29.02-.32.03-.63.05-1,.24,0,.44,0,.64,0,2.76,0,5.53,0,8.29,0,3.34,0,6.66.11,9.89,1.1,1.35.51,2.61,1.17,3.74,2.08.99.94,1.78,2.02,2.33,3.28.81,2.01.94,4.11.88,6.24-.24,1.13-.48,2.27-.72,3.4-.88,2.07-2.2,3.78-4.17,4.9-.94.53-1.98.91-2.97,1.36-1.07.22-2.13.48-3.2.66-.48.08-.98.03-1.47.03-1.42,0-2.85,0-4.32,0,0,.3,0,.52,0,.75,0,3.19-.01,6.38-.02,9.56h-15.84c-.52-1.62-1.04-3.23-1.58-4.9-3.77,1.12-7.53,1.14-11.34-.06-.41,1.23-.82,2.44-1.22,3.66-.43,1.31-.42,1.31-1.82,1.31h-8.35c.34-.92.66-1.78.97-2.63-1.05.62-2.05,1.3-3.12,1.81-2.48,1.18-5.15,1.48-7.86,1.36-3.88-.17-7.53-1.18-10.94-3.04-.08-.04-.16-.09-.28-.17.12-.29.24-.58.36-.87.87-1.7,1.74-3.39,2.61-5.09.09-.18.19-.37.31-.6.39.21.77.41,1.14.62,2.8,1.55,5.78,2.2,8.97,1.79.48-.06.97-.2,1.41-.4.96-.43,1.53-1.21,1.53-2.26,0-1.04-.73-1.6-1.6-1.99-.05-.03-.1-.06-.15-.09-.03-.02-.07-.03-.1-.05-1.4-.51-2.78-1.06-4.19-1.52-2.52-.83-4.95-1.84-7.09-3.44-1.66-1.38-2.73-3.12-3.17-5.24ZM46.46,29.71c-.6-1.96-1.2-3.91-1.8-5.87-.04,0-.09,0-.13,0-.62,1.99-1.25,3.99-1.87,5.98-.5,1.56-1.01,3.11-1.52,4.7,2.32.79,4.56.81,6.84.01-.52-1.65-1.02-3.23-1.52-4.82ZM67.75,28.9c1.22,0,2.45.08,3.66-.03,2.04-.19,3.68-1.01,4.18-3.24.49-2.32-.41-4.01-2.07-4.69-.72-.29-1.51-.51-2.29-.57-1.17-.09-2.36-.02-3.55-.02-.01.11-.03.19-.03.26,0,2.64,0,5.29,0,7.93,0,.12.06.24.09.36Z"></path></svg>