<svg xmlns="http://www.w3.org/2000/svg" id="Camada_1" viewBox="0 0 120 60"><defs><style>      .st0 {        fill: #0a2332;      }    </style></defs><path class="st0" d="M5.01,30.01c0-1.58-.01-3.16,0-4.74.01-1.46.25-2.9.63-4.31.18-.68.58-1.2,1.13-1.62,1.48-1.11,3.05-2.05,4.72-2.85,1.73-.83,3.53-1.47,5.39-1.96.8-.21,1.6-.23,2.4-.02,3.62.95,6.97,2.47,10.01,4.69.73.53,1.2,1.2,1.4,2.08.33,1.45.55,2.91.55,4.4,0,3.05.01,6.1-.01,9.15-.01,1.45-.25,2.87-.64,4.27-.19.68-.6,1.19-1.16,1.6-1.03.77-2.11,1.46-3.23,2.07-2.17,1.19-4.46,2.07-6.85,2.7-.79.21-1.57.22-2.36.02-3.65-.95-7.03-2.48-10.06-4.73-.29-.21-.54-.47-.78-.74-.27-.3-.41-.68-.51-1.07-.4-1.55-.62-3.12-.61-4.72,0-1.41,0-2.81,0-4.22h0ZM18.1,23.11c-.33.05-.67.08-.99.16-3.15.8-6.09,2.07-8.81,3.87-.49.32-.97.65-1.42,1.03-1.24,1.02-1.23,2.64,0,3.68.12.1.25.2.38.3,2.98,2.18,6.28,3.67,9.85,4.59.66.17,1.33.17,2,0,3.52-.91,6.78-2.37,9.73-4.5.21-.15.43-.31.62-.48,1.09-.99,1.1-2.48.02-3.48-.14-.13-.29-.24-.44-.35-2.81-2.07-5.91-3.52-9.26-4.47-.55-.16-1.1-.33-1.69-.34Z"></path><path class="st0" d="M68.33,29.75c-.02,1.23-.05,2.18-.33,3.11-.4,1.33-1.15,2.42-2.29,3.23-1.24.88-2.59,1.53-4.03,1.99-1.16.37-2.33.35-3.49-.03-1.31-.43-2.54-1.02-3.68-1.78-1.68-1.11-2.57-2.7-2.78-4.68-.13-1.19-.13-2.39.06-3.58.24-1.58.96-2.9,2.22-3.89,1.27-.99,2.69-1.7,4.22-2.19,1.2-.38,2.4-.37,3.6.02,1.45.48,2.81,1.15,4.03,2.08,1.42,1.07,2.19,2.52,2.38,4.28.06.57.08,1.14.1,1.45ZM55.56,29.98c.04.43.06.85.11,1.27.06.66.35,1.22.86,1.64.7.58,1.45,1.1,2.28,1.47.79.36,1.59.35,2.38,0,.83-.38,1.57-.9,2.28-1.48.44-.36.71-.83.81-1.39.17-.94.17-1.88.03-2.82-.09-.57-.34-1.07-.77-1.46-.75-.66-1.56-1.23-2.49-1.62-.71-.3-1.42-.3-2.14,0-.91.39-1.72.95-2.46,1.6-.46.4-.72.92-.79,1.52-.05.42-.07.84-.11,1.26Z"></path><path class="st0" d="M114.54,26.85c-.11,0-.2.02-.3.02-.83,0-1.67,0-2.5,0-.12,0-.25-.02-.37-.03-.32-.02-.49-.2-.58-.49-.03-.11-.06-.21-.1-.32-.15-.44-.45-.74-.89-.9-.22-.08-.46-.15-.69-.16-.82-.03-1.64-.1-2.46.06-.29.06-.58.16-.83.3-.56.32-.77,1.18-.48,1.75.16.31.44.48.76.57.44.12.89.21,1.34.3,1.33.25,2.67.47,3.99.76.55.12,1.09.35,1.59.61,1.18.62,1.85,1.6,1.94,2.94.05.71.06,1.42-.06,2.12-.21,1.19-.86,2.1-1.87,2.76-.78.51-1.65.82-2.57.95-1.61.22-3.23.22-4.84,0-.74-.1-1.45-.33-2.11-.7-1.31-.72-2.06-1.85-2.32-3.3-.07-.41-.09-.83-.14-1.27.15-.01.25-.03.34-.03.87,0,1.74,0,2.61,0,.56,0,.72.12.9.65.01.04.02.07.03.11.21.82.78,1.24,1.57,1.41.25.05.52.09.78.09.77-.01,1.54-.02,2.31-.09.3-.03.6-.17.87-.31.38-.21.58-.57.6-1.01.05-.92-.19-1.31-1.09-1.55-.67-.18-1.36-.28-2.05-.41-1.12-.22-2.25-.42-3.36-.68-.75-.18-1.44-.54-2.04-1.05-.7-.61-1.12-1.38-1.18-2.3-.04-.64-.03-1.3.04-1.94.12-1.15.72-2.05,1.64-2.73.79-.59,1.7-.93,2.68-1.07.48-.07.97-.09,1.45-.1.78-.01,1.57-.02,2.35.02,1.24.07,2.41.4,3.39,1.19,1.17.95,1.66,2.23,1.66,3.72,0,.02-.01.05-.04.11Z"></path><path class="st0" d="M98.64,22.22c0,.1,0,.22,0,.35,0,2.69,0,5.38,0,8.07,0,.49-.14.93-.44,1.32-1.36,1.77-2.72,3.53-4.07,5.3-.32.42-.75.6-1.26.6-.71,0-1.42,0-2.13,0-.53,0-.95-.21-1.28-.65-1.34-1.75-2.69-3.49-4.05-5.22-.3-.39-.47-.81-.46-1.3,0-2.74,0-5.48,0-8.22,0-.09.01-.17.02-.29.11,0,.22-.02.33-.02.75,0,1.49,0,2.24,0,.07,0,.15,0,.22,0,.62.06.88.34.91.96,0,.1,0,.2,0,.3,0,2.1.01,4.21,0,6.31,0,.63.17,1.15.58,1.64.81.96,1.58,1.95,2.37,2.93.06.08.13.15.21.25.07-.07.13-.12.18-.18.81-1.05,1.62-2.11,2.44-3.16.31-.4.45-.84.45-1.35,0-2.19,0-4.38,0-6.57,0-.18.02-.37.06-.55.08-.29.29-.46.58-.52.06-.01.12-.03.18-.03.93,0,1.87,0,2.8,0,.02,0,.04.02.1.05Z"></path><path class="st0" d="M68.77,22.18h13.43c0,.4,0,.77,0,1.14,0,.41,0,.82,0,1.23-.02.55-.33.87-.88.91-.11,0-.22,0-.34,0-1.05,0-2.09,0-3.14,0-.13,0-.27,0-.45,0v12.36h-3.8v-12.36c-.18,0-.32,0-.45,0-1.06,0-2.12,0-3.17,0-.11,0-.22,0-.34,0-.51-.05-.84-.35-.85-.87-.02-.8,0-1.59,0-2.42Z"></path><path class="st0" d="M46.41,37.84h-3.81c0-.83,0-1.65,0-2.46,0-.82,0-1.64,0-2.46v-7.44c-.16,0-.29,0-.42,0-1.07,0-2.14,0-3.21,0-.14,0-.28,0-.41-.02-.43-.07-.72-.32-.74-.72-.03-.84,0-1.69,0-2.56h13.36c.01.1.03.19.03.28,0,.67,0,1.34,0,2.02,0,.66-.32.99-.99.99-1.12,0-2.24,0-3.36,0-.13,0-.27,0-.44,0v12.37Z"></path></svg>