<svg xmlns="http://www.w3.org/2000/svg" id="Camada_1" viewBox="0 0 120 60"><defs><style>      .st0 {        fill: #e73634;      }    </style></defs><path class="st0" d="M81.9,57.47h-43.64c-.23-.08-.46-.17-.69-.25-2.51-.78-4.1-2.42-4.66-5.01-.04-.17-.12-.33-.18-.49,0-14.47,0-28.95,0-43.42.06-.16.15-.32.18-.49.37-2.02,1.55-3.48,3.27-4.5.91-.54,1.92-.84,3.11-.69.03.52.07.97.07,1.42,0,6.63-.01,13.27-.01,19.9,0,.96-.22,2.02.13,2.84.36.85,1.26,1.49,1.96,2.19.7.7,1.43,1.35,2.05,1.93,7.7-7.71,15.33-15.34,22.95-22.97-.2-.01-.54-.04-.88-.04-1.7,0-3.41.04-5.11-.02-.85-.03-1.45.24-2.05.85-4.12,4.16-8.27,8.29-12.41,12.42-.26.26-.55.5-.82.75-.09-.03-.19-.06-.28-.09-.05-1.57-.04-3.15-.04-4.72,0-1.6,0-3.19,0-4.79,0-1.63-.01-3.26,0-4.9.01-1.58-.06-3.16.05-4.8.45-.03.76-.08,1.07-.08,11.67,0,23.34-.01,35.01,0,3.38,0,6.26,2.88,6.27,6.26.03,7.84.01,15.68,0,23.52,0,.34-.07.68-.1.98-1.36.26-6.97.2-7.83-.12,0-.33,0-.72,0-1.1,0-2.45.01-4.9-.01-7.34-.05-5.07-.11-10.14-.17-15.21-.01-1.12-.26-1.38-1.38-1.39-2.02-.02-4.04,0-6.07-.01-.53,0-.94.16-1.32.54-2.37,2.34-4.77,4.65-7.15,6.99-4.05,3.97-8.1,7.95-12.14,11.93-1.79,1.77-3.56,3.56-5.36,5.32-.41.4-.62.81-.61,1.4.02,2.38,0,4.75.01,7.13,0,.27.07.54.12.91.48,0,.9,0,1.32,0,7.63,0,15.25,0,22.88,0,.44,0,.89.07,1.45.11v8.01c1.14.29,7.34.26,8.25-.06,0-.34,0-.72,0-1.1,0-1.88,0-3.76,0-5.64,0-.4.1-.81.15-1.17,1.32-.27,7.08-.21,7.85.06.03.12.09.25.09.39,0,2.84.08,5.68-.02,8.51-.07,1.79-.87,3.31-2.3,4.5-.91.75-1.96,1.1-3.01,1.52Z"></path><path class="st0" d="M70.8,20.1v13.14c-.81.27-11.97.33-13.17.1.36-.67,12.06-12.46,13.17-13.24Z"></path></svg>