<svg xmlns="http://www.w3.org/2000/svg" id="Layer_1" viewBox="0 0 247.2 42.02"><defs><style>      .st0 {        fill: #0136da;      }    </style></defs><path class="st0" d="M161.57,24.88l9.28-16.47,9.19,16.42c-2.61-1.18-5.85-1.77-9.37-1.77-3.29,0-6.45.59-9.1,1.82M113.97,24.88l9.28-16.47,9.19,16.42c-2.61-1.18-5.85-1.77-9.37-1.77-3.29,0-6.45.59-9.1,1.82M25.36,24.88l9.28-16.83,9.28,16.79c-2.61-1.18-5.9-1.77-9.42-1.77-3.29,0-6.49.59-9.14,1.82M235.18,28.97c0,6.91-6.36,11.01-17.74,11.01-8.14,0-15.04-1.5-22.13-5.96l2.33-4.14c6.63,4.19,12.3,5.64,19.75,5.64,8.28,0,12.62-2.41,12.62-6.64,0-3.41-3.15-4.82-9.37-5.46l-10.97-1.09c-8-.77-13.08-3.82-13.08-9.42,0-6.64,7.18-10.87,18.56-10.87,7.09,0,12.71,1.36,18.33,4.87l-2.29,4.32c-4.48-2.96-9.74-4.55-16.64-4.55-8.05,0-12.8,2.55-12.8,6.05,0,3.32,3.43,4.59,8.41,5.1l11.2,1.09c9.01.86,13.81,4.09,13.81,10.05M193.62,39.16L173.18,2.91h-4.62l-20.39,36.26h5.49l2.24-4.14c2.61-4.82,7.13-7.37,14.77-7.37s12.44,2.5,15.09,7.42l2.19,4.09h5.67ZM146.02,39.16L125.59,2.91h-4.62l-20.39,36.26h5.49l2.24-4.14c2.61-4.82,7.13-7.37,14.77-7.37s12.44,2.5,15.09,7.42l2.19,4.09h5.67ZM99.02,28.97c0,6.91-6.36,11.01-17.74,11.01-8.14,0-15.04-1.5-22.13-5.96l2.33-4.14c6.63,4.19,12.3,5.64,19.75,5.64,8.28,0,12.62-2.41,12.62-6.64,0-3.41-3.15-4.82-9.37-5.46l-10.97-1.09c-8-.77-13.08-3.82-13.08-9.42,0-6.64,7.18-10.87,18.56-10.87,7.09,0,12.71,1.36,18.33,4.87l-2.29,4.32c-4.48-2.96-9.74-4.55-16.64-4.55-8.05,0-12.8,2.55-12.8,6.05,0,3.32,3.43,4.59,8.41,5.1l11.2,1.09c9.01.86,13.81,4.09,13.81,10.05M29.98,7.18l-17.97,31.98h5.49l2.24-4.14c2.61-4.78,7.09-7.37,14.77-7.37s12.48,2.59,15.09,7.42l2.19,4.09h5.67L38.35,5.23c-.91-1.64-2.19-2.32-4.3-2.32h-15.41l2.35,2.39c1.43,1.43,2.56,1.88,4.55,1.88h4.43Z"></path></svg>