<svg xmlns="http://www.w3.org/2000/svg" id="Layer_1" viewBox="0 0 133.4 74.11"><defs><style>      .st0 {        fill: #40aa0b;        fill-rule: evenodd;      }    </style></defs><path class="st0" d="M20.65,62.16c-.26.59-.73,1.06-1.32,1.31-.3.13-.62.19-.95.19h-5.87c-2.29,0-4.25-.81-5.87-2.43-1.62-1.62-2.43-3.59-2.43-5.9s.81-4.25,2.43-5.87c1.64-1.63,3.59-2.45,5.87-2.45h5.87c1.35,0,2.45,1.1,2.45,2.45,0,.35-.06.66-.19.96-.26.59-.73,1.05-1.32,1.31-.3.13-.62.19-.95.19h-5.87c-.95,0-1.76.34-2.43,1.01-.65.63-1.01,1.5-.99,2.41,0,.93.33,1.74.99,2.43.69.66,1.5.99,2.43.99h5.87c.99,0,1.87.6,2.26,1.51.13.3.19.62.19.95s-.06.66-.19.96h0ZM128.9,61.2c0,.35-.06.66-.19.96-.26.59-.73,1.05-1.32,1.31-.3.13-.62.19-.95.19h-5.87c-2.3,0-4.25-.81-5.87-2.43-1.62-1.62-2.43-3.59-2.43-5.9s.81-4.25,2.43-5.87c1.64-1.63,3.59-2.45,5.87-2.45h5.87c1.36,0,2.46,1.11,2.45,2.47,0,.32-.07.64-.19.94-.26.59-.73,1.06-1.32,1.31-.3.13-.62.19-.95.19h-5.87c-.92-.01-1.79.35-2.43,1.01-.65.63-1.01,1.5-.99,2.41,0,.93.33,1.74.99,2.43.69.66,1.5.99,2.43.99h3.44v-.97h-3.44c-.66,0-1.23-.24-1.71-.72-.47-.45-.73-1.08-.72-1.73,0-.33.06-.65.19-.95.13-.3.3-.56.52-.79.45-.47,1.07-.73,1.72-.72h5.87c1.35,0,2.45,1.1,2.45,2.45,0,0,0,5.87,0,5.87ZM110.13,61.2c0,.35-.06.66-.19.96-.26.59-.73,1.05-1.32,1.31-.3.13-.62.19-.95.19-.66,0-1.23-.24-1.71-.72-.47-.45-.73-1.08-.72-1.73v-11.75c0-.33.06-.65.19-.95.13-.3.3-.56.52-.79.45-.47,1.07-.73,1.72-.72,1.35,0,2.45,1.1,2.45,2.45,0,0,0,11.75,0,11.75ZM103.11,61.2c0,.35-.06.66-.19.96-.26.59-.73,1.05-1.32,1.31-.3.13-.62.19-.95.19-.66,0-1.23-.24-1.71-.72-.47-.45-.73-1.08-.72-1.73v-5.87c0-.93-.34-1.73-1.01-2.41-.64-.66-1.52-1.03-2.43-1.01-.92-.01-1.79.35-2.43,1.01-.51.51-.83,1.12-.94,1.8.01.2.02.4.02.61v5.87c0,.35-.06.66-.19.96-.26.59-.73,1.05-1.32,1.31-.3.13-.62.19-.95.19h-.07c-.66,0-1.23-.24-1.71-.72-.47-.45-.73-1.08-.72-1.73v-5.87c0-.2,0-.4.02-.59-.12-.69-.46-1.33-.96-1.81-.64-.66-1.52-1.03-2.43-1.01-.92-.01-1.79.35-2.43,1.01-.65.63-1.01,1.5-.99,2.41v5.87c0,.65-.25,1.28-.71,1.74-.46.46-1.09.72-1.74.71-.66,0-1.23-.24-1.71-.72-.47-.45-.73-1.08-.72-1.73v-5.87c0-2.3.81-4.25,2.43-5.87s3.59-2.45,5.87-2.45,4.23.81,5.84,2.42c1.63-1.61,3.58-2.42,5.84-2.42s4.25.82,5.87,2.45c1.64,1.62,2.45,3.58,2.45,5.87,0,0,0,5.87,0,5.87ZM72.47,62.16c-.26.59-.73,1.05-1.32,1.31-.3.13-.61.19-.94.19h-5.88c-2.29,0-4.25-.81-5.87-2.43-1.62-1.62-2.43-3.59-2.43-5.9s.81-4.25,2.43-5.87,3.59-2.45,5.87-2.45h5.88c.99,0,1.88.6,2.26,1.51.13.3.19.61.19.94s-.06.66-.19.96c-.26.59-.73,1.05-1.32,1.31-.3.13-.61.19-.94.19h-5.88c-.94,0-1.76.34-2.43,1.01-.65.63-1.01,1.5-.99,2.41,0,.93.33,1.74.99,2.43.69.66,1.5.99,2.43.99h5.88c.99,0,1.87.6,2.26,1.51.13.3.19.62.19.95s-.06.66-.19.96ZM72.47,56.28c-.26.59-.73,1.05-1.32,1.31-.3.13-.61.19-.94.19h-5.88c-.66,0-1.23-.24-1.71-.72-.47-.45-.73-1.08-.72-1.73,0-.33.06-.65.19-.95.13-.3.3-.56.52-.79.45-.46,1.07-.73,1.72-.72h5.88c.99,0,1.87.6,2.26,1.51.13.3.19.62.19.95s-.06.66-.19.96ZM55.32,50.41c-.26.59-.73,1.06-1.32,1.31-.3.13-.62.19-.95.19h-3.42v9.29c0,.35-.06.66-.19.96-.26.59-.73,1.05-1.32,1.31-.3.13-.62.19-.95.19-.66,0-1.23-.24-1.71-.72-.47-.45-.73-1.08-.72-1.73v-9.3h-3.45c-.66,0-1.23-.24-1.71-.72-.47-.45-.73-1.08-.72-1.73,0-.33.06-.65.19-.95.13-.3.3-.56.52-.79.45-.47,1.07-.73,1.72-.72h11.75c1.35,0,2.45,1.1,2.45,2.45,0,.35-.06.66-.19.96h0ZM35.79,61.22c-1.62,1.62-3.58,2.43-5.87,2.43s-4.25-.81-5.87-2.43c-1.62-1.62-2.43-3.59-2.43-5.9s.81-4.25,2.43-5.87c1.63-1.63,3.59-2.45,5.87-2.45s4.25.82,5.87,2.45c1.63,1.62,2.45,3.58,2.45,5.87s-.82,4.26-2.45,5.9ZM32.35,52.92c-.64-.66-1.52-1.02-2.43-1.01-.95,0-1.76.34-2.43,1.01-.65.63-1.01,1.5-.99,2.41,0,.93.33,1.74.99,2.43.69.66,1.5.99,2.43.99s1.74-.33,2.43-.99c.68-.65,1.01-1.46,1.01-2.43s-.34-1.73-1.01-2.41ZM63.52,40.01c-.1,0-.19,0-.29-.02-7.66-1.25-13.28-7.89-13.26-15.65-.01-4.92,2.26-9.56,6.16-12.55,2.77-2.16,6.19-3.33,9.71-3.32,6.84,0,12.91,4.37,15.06,10.86.31.92-.18,1.92-1.1,2.23-.92.31-1.92-.18-2.23-1.1,0,0,0-.02,0-.02-1.68-5.05-6.4-8.46-11.73-8.45-2.74,0-5.39.9-7.55,2.58-3.03,2.33-4.81,5.94-4.79,9.77-.02,6.04,4.35,11.21,10.31,12.18.96.16,1.61,1.06,1.45,2.02-.14.85-.88,1.48-1.74,1.48h0ZM65.84,34.16c-5.42,0-9.82-4.4-9.82-9.82,0-3.06,1.39-5.9,3.81-7.77.77-.6,1.87-.45,2.47.31.6.77.45,1.87-.31,2.47h0c-1.55,1.19-2.46,3.04-2.45,4.99,0,3.48,2.82,6.3,6.31,6.31,2.68,0,5.06-1.69,5.95-4.22.35-.91,1.37-1.35,2.28-1,.86.34,1.32,1.28,1.04,2.17-1.39,3.93-5.1,6.57-9.27,6.57ZM87.75,24.33c0,2.81-.54,5.58-1.57,8.16,1.29,1.73.94,4.17-.79,5.47-1.73,1.29-4.17.94-5.47-.79s-.94-4.17.79-5.47c.66-.5,1.47-.77,2.3-.78.8-2.09,1.22-4.33,1.22-6.59,0-10.14-8.25-18.39-18.4-18.39-7.16.02-13.66,4.17-16.69,10.65-1.13,2.42-1.71,5.07-1.7,7.74,0,.97-.79,1.76-1.76,1.76s-1.76-.79-1.76-1.76c0-3.22.68-6.32,2.03-9.22,3.61-7.73,11.36-12.67,19.88-12.69,12.08,0,21.91,9.83,21.91,21.91ZM17.23,71.26c-.7,0-1.24-.21-1.62-.62-.38-.41-.57-.99-.57-1.74s.19-1.33.58-1.74c.39-.42.94-.62,1.64-.62.4,0,.88.06,1.42.2v.6c-.62-.21-1.09-.32-1.43-.32-.49,0-.87.17-1.13.5-.27.33-.4.8-.4,1.4s.14,1.03.43,1.36c.29.33.68.5,1.17.5.43,0,.88-.13,1.37-.39v.55c-.45.23-.95.35-1.45.34ZM22.61,71.26c-.62,0-1.13-.22-1.51-.65-.38-.43-.57-1.01-.57-1.72s.19-1.29.57-1.72c.38-.43.89-.64,1.53-.64s1.15.21,1.53.64c.38.43.58,1,.58,1.71s-.19,1.31-.58,1.73c-.38.43-.9.64-1.56.64ZM22.62,70.79c.46,0,.82-.17,1.07-.5.25-.33.38-.8.38-1.4s-.13-1.04-.38-1.37c-.25-.33-.64-.51-1.05-.5-.41-.02-.8.17-1.05.5-.25.33-.38.79-.38,1.38s.12,1.05.37,1.39c.25.34.59.5,1.03.5ZM27.35,71.15v-4.5h.64v4.02h2.03v.48h-2.66ZM32.72,71.15v-4.5h2.52v.48h-1.87v1.44h1.57v.47h-1.57v1.63h2.01v.48h-2.65ZM33.53,66.27l.73-.98h.69l-.98.98h-.45ZM41.66,71.03c-.46.14-.94.22-1.43.24-.72,0-1.26-.2-1.65-.61-.38-.41-.57-.99-.57-1.75s.19-1.33.58-1.74c.39-.42.93-.62,1.63-.62.46,0,.94.07,1.43.2v.59c-.62-.21-1.1-.32-1.43-.32-.49,0-.87.17-1.13.5-.27.33-.4.8-.4,1.4s.14,1.06.43,1.39c.29.33.69.49,1.21.49.21,0,.44-.04.69-.11v-1.47h.64v1.82h0ZM44.19,71.15v-4.5h.64v4.5s-.64,0-.64,0ZM49.89,71.26c-.62,0-1.13-.22-1.51-.65-.38-.43-.57-1.01-.57-1.72s.19-1.29.58-1.72c.38-.43.89-.64,1.53-.64s1.15.21,1.53.64c.38.43.58,1,.58,1.71s-.19,1.31-.58,1.73c-.38.43-.9.64-1.56.64ZM49.9,70.79c.46,0,.82-.17,1.07-.5s.38-.8.38-1.4-.13-1.04-.38-1.37c-.25-.33-.64-.51-1.05-.5-.41-.02-.8.17-1.05.5-.25.33-.38.79-.38,1.38s.13,1.05.38,1.39c.25.34.59.5,1.03.5ZM58.78,71.15v-4.5h2.52v.48h-1.88v1.44h1.57v.47h-1.57v1.63h2.01v.48h-2.65ZM68.48,71.15v-4.5h2.51v.48h-1.88v1.51h1.58v.47h-1.58v2.04h-.64,0ZM75.97,69.43l-.77-1.94-.77,1.94s1.54,0,1.54,0ZM76.64,71.15l-.49-1.25h-1.91l-.5,1.25h-.59l1.79-4.5h.63l1.76,4.5h-.69ZM81.76,71.26c-.7,0-1.24-.21-1.62-.62-.38-.41-.57-.99-.57-1.74s.19-1.33.58-1.74c.39-.42.94-.62,1.64-.62.4,0,.88.06,1.42.2v.6c-.62-.21-1.09-.32-1.43-.32-.49,0-.87.17-1.13.5-.27.33-.4.8-.4,1.4s.14,1.03.43,1.36c.29.33.68.5,1.17.5.43,0,.88-.13,1.37-.39v.55c-.45.23-.95.35-1.45.34ZM85.29,66.65h.64v2.84c0,.45.08.78.25.99.17.21.43.31.8.31s.61-.1.76-.29c.15-.19.22-.52.22-.98v-2.86h.56v2.85c0,.61-.13,1.06-.38,1.34-.25.28-.66.42-1.21.42s-.98-.14-1.24-.43-.4-.74-.4-1.34c0,0,0-2.84,0-2.84ZM91.75,71.15v-4.5h.64v4.02h2.03v.48s-2.66,0-2.66,0ZM97.13,71.15v-4.5h1.5c.45,0,.81.05,1.08.15.28.1.52.28.71.5.32.38.48.87.48,1.49,0,.75-.2,1.33-.59,1.74-.39.41-.95.62-1.67.62h-1.51ZM97.77,70.67h.82c.58,0,1-.16,1.24-.47.26-.34.39-.78.39-1.35,0-.53-.13-.95-.39-1.25-.15-.18-.34-.31-.56-.38-.32-.08-.65-.11-.98-.1h-.53s0,3.55,0,3.55ZM105.74,69.43l-.77-1.94-.77,1.94s1.54,0,1.54,0ZM106.42,71.15l-.49-1.25h-1.91l-.5,1.25h-.59l1.79-4.5h.63l1.76,4.5h-.69ZM109.61,71.15v-4.5h1.5c.45,0,.81.05,1.08.15.28.1.52.28.71.5.32.38.48.87.48,1.49,0,.75-.2,1.33-.59,1.74-.4.41-.95.62-1.67.62,0,0-1.51,0-1.51,0ZM110.25,70.67h.82c.58,0,1-.16,1.24-.47.26-.34.39-.78.39-1.35,0-.53-.13-.95-.39-1.25-.15-.18-.34-.31-.56-.38-.32-.08-.65-.11-.98-.1h-.53s0,3.55,0,3.55ZM115.94,71.15v-4.5h2.52v.48h-1.88v1.44h1.57v.47h-1.57v1.63h2.01v.48s-2.65,0-2.65,0Z"></path></svg>