<svg xmlns="http://www.w3.org/2000/svg" id="Layer_1" viewBox="0 0 574.21 155.98"><defs><style>      .st0 {        fill: #ed185b;      }    </style></defs><g id="logo-fiap"><path class="st0" d="M163.73,154.97h11.35V2.17h-11.35v152.8Z"></path><path class="st0" d="M163.73,154.97h11.35V2.17h-11.35v152.8Z"></path><path class="st0" d="M43.39,85.78h55.41v-10.48h-55.41v10.48Z"></path><path class="st0" d="M43.39,85.78h55.41v-10.48h-55.41v10.48Z"></path><path class="st0" d="M130.05,2.17v10.48H12.35v62.65h.01v10.48h-.02v69.2H1V2.17"></path><path class="st0" d="M130.05,2.17v10.48H12.35v62.65h.01v10.48h-.02v69.2H1V2.17h129.05Z"></path><path class="st0" d="M516.45,1.58c33.62,0,56.76,17.25,56.76,46.72v.44c0,32.09-27.73,48.68-59.6,48.68h-35.14v-10.48h35.8c28.38,0,47.59-14.85,47.59-37.55v-.44c0-24.23-18.77-36.89-46.28-36.89h-78.22v74.87h.08v10.48h-.08v56.98h-11.35V1.58h90.45"></path><path class="st0" d="M516.45,1.58c33.62,0,56.76,17.25,56.76,46.72v.44c0,32.09-27.73,48.68-59.6,48.68h-35.14v-10.48h35.8c28.38,0,47.59-14.85,47.59-37.55v-.44c0-24.23-18.77-36.89-46.28-36.89h-78.22v74.87h.08v10.48h-.08v56.98h-11.35V1.58h90.45"></path><path class="st0" d="M347.09,86.93l-45.79-73.49-87.84,141.45h-11.79L296.06,1h10.92l52.99,85.93"></path><path class="st0" d="M347.09,86.93l-45.79-73.49-87.84,141.45h-11.79L296.06,1h10.92l52.99,85.93h-12.88Z"></path><path class="st0" d="M401.87,154.9h-12.44l-24.73-39.69h12.7"></path><path class="st0" d="M401.87,154.9h-12.44l-24.73-39.69h12.7l24.47,39.69Z"></path></g></svg>