<svg xmlns="http://www.w3.org/2000/svg" width="172" height="25" viewBox="0 0 172 25" fill="none"><path d="M8.32553 4.90909C7.95958 5.18182 7.7766 5.63636 7.7766 6.27272V7.36363H11.5277V11H7.7766V23.1818H2.28723V10.9091H0V7.27272H2.28723V5.72727C2.28723 4 2.83617 2.54545 4.02553 1.54545C5.21489 0.545454 6.77021 0 8.6 0C9.78936 0 10.9787 0.181818 12.1681 0.636363L11.4362 4.81818C10.6128 4.54545 9.97234 4.36363 9.60638 4.36363C9.05745 4.45454 8.6 4.63636 8.32553 4.90909Z" fill="#5F3473"></path><path d="M21.7746 6.909C22.6895 6.36355 23.7874 6.09082 24.9768 6.09082V11.0908C24.7938 11.0908 24.5193 11.0908 24.1534 11.0908C22.8725 11.0908 21.7746 11.3635 20.9512 11.9999C20.1278 12.6363 19.6704 13.4545 19.5789 14.4545V22.9999H13.998V6.36355H19.5789V9.18173C20.1278 8.18173 20.8597 7.45446 21.7746 6.909Z" fill="#5F3473"></path><path d="M39.7062 7.72734C40.987 8.81825 41.6275 10.2728 41.6275 12.091V23.091H36.3211V21.0001C35.2232 22.3637 33.5764 23.091 31.3807 23.091C29.6424 23.091 28.27 22.6364 27.2636 21.6364C26.2573 20.7273 25.7998 19.4546 25.7998 17.9092C25.7998 16.3637 26.3487 15.091 27.4466 14.2728C28.5445 13.3637 30.0998 12.9092 32.1126 12.9092H36.4126V12.7273C36.4126 11.9092 36.1381 11.3637 35.5892 10.9092C35.0402 10.4546 34.3083 10.2728 33.3019 10.2728C32.57 10.2728 31.8381 10.3637 31.0147 10.6364C30.1913 10.8182 29.2764 11.1819 28.453 11.6364L26.9892 8.00007C28.3615 7.3637 29.6424 6.90916 30.8317 6.63643C32.0211 6.3637 33.3019 6.18188 34.6743 6.18188C36.687 6.18188 38.5168 6.63643 39.7062 7.72734ZM35.2232 18.8182C35.8636 18.4546 36.2296 17.9092 36.4126 17.2728V15.8182H33.119C31.5636 15.8182 30.8317 16.3637 30.8317 17.5455C30.8317 18.091 31.0147 18.5455 31.3807 18.9092C31.7466 19.2728 32.2955 19.4546 33.0275 19.4546C33.8509 19.4546 34.5828 19.1819 35.2232 18.8182Z" fill="#5F3473"></path><path d="M69.8979 7.90916C70.9958 9.09097 71.5448 10.6364 71.5448 12.5455V23.091H66.0554V14.091C66.0554 13.1819 65.7809 12.3637 65.3235 11.8182C64.866 11.2728 64.1341 11.0001 63.3107 11.0001C62.3958 11.0001 61.5724 11.3637 61.0235 12.091C60.4745 12.8182 60.2001 13.7273 60.2001 14.8182V23.091H54.7107V14.091C54.7107 13.1819 54.4362 12.3637 53.9788 11.8182C53.5213 11.2728 52.7894 11.0001 51.966 11.0001C51.0511 11.0001 50.2277 11.3637 49.6788 12.091C49.1299 12.8182 48.8554 13.7273 48.8554 14.8182V23.091H43.4575V6.18188H48.8554V9.18188C49.4043 8.18188 50.1362 7.45461 51.0511 7.00007C51.966 6.45461 52.9724 6.27279 54.2533 6.27279C55.6256 6.27279 56.7235 6.63643 57.7299 7.27279C58.6448 7.90916 59.3767 8.81825 59.7426 10.0001C60.2916 8.72734 61.0235 7.81825 62.0299 7.18188C63.0362 6.54552 64.2256 6.27279 65.5065 6.27279C67.3362 6.18188 68.8001 6.72734 69.8979 7.90916Z" fill="#5F3473"></path><path d="M88.1045 8.45448C89.5683 10.0908 90.3002 12.2727 90.3002 14.9999C90.3002 15.4545 90.3002 15.7272 90.3002 15.9999H78.7726C79.047 16.909 79.5045 17.6363 80.1449 18.1817C80.7853 18.7272 81.6087 18.909 82.5236 18.909C83.2555 18.909 83.896 18.7272 84.6279 18.4545C85.2683 18.1817 85.9087 17.7272 86.4577 17.1817L89.2938 19.9999C88.4704 20.9999 87.3726 21.7272 86.1832 22.1817C84.9938 22.7272 83.6215 22.909 82.0662 22.909C80.3279 22.909 78.7726 22.5454 77.4002 21.8181C76.0279 21.0908 75.0215 20.0908 74.3811 18.909C73.6492 17.6363 73.2832 16.1818 73.2832 14.4545C73.2832 12.7272 73.6492 11.2727 74.3811 9.90902C75.113 8.6363 76.1194 7.6363 77.4002 6.90902C78.6811 6.18175 80.2364 5.81812 81.9747 5.81812C84.6279 6.09084 86.7321 6.90902 88.1045 8.45448ZM84.9938 13.0908C84.9938 12.0908 84.7194 11.3636 84.1704 10.7272C83.6215 10.1818 82.8896 9.81811 81.9747 9.81811C81.1513 9.81811 80.4194 10.0908 79.7789 10.6363C79.23 11.1818 78.7726 11.9999 78.5896 12.9999H84.9938V13.0908Z" fill="#5F3473"></path><path d="M89.4766 6.18188H95.1489L98.534 17.6364L101.828 6.18188H107.225L110.519 17.6364L113.904 6.18188H119.394L113.172 23.091H107.683L104.389 12.6364L101.187 23.091H95.6978L89.4766 6.18188Z" fill="#5F3473"></path><path d="M149.768 7.00007C150.683 6.45461 151.689 6.27279 152.878 6.27279V11.2728C152.695 11.2728 152.421 11.2728 152.055 11.2728C150.774 11.2728 149.676 11.5455 148.853 12.1819C148.03 12.8182 147.572 13.6364 147.481 14.6364V23.091H141.991V6.18188H147.481V9.27279C148.121 8.27279 148.853 7.54552 149.768 7.00007Z" fill="#5F3473"></path><path d="M165.504 23.0908L161.936 16.8181L160.198 18.5454V23.0908H154.617V0.0908203H160.198V11.9999L165.596 6.36355H171.909L165.687 12.8181L172 23.0908H165.504Z" fill="#5F3473"></path><path d="M135.313 7.18173C136.96 7.909 138.241 8.909 139.155 10.1817C140.07 11.4545 140.528 12.909 140.528 14.6363C140.528 16.3635 140.07 17.8181 139.155 19.0908C138.241 20.3635 136.96 21.3635 135.313 22.0908C133.666 22.8181 131.745 23.1817 129.549 23.1817C127.353 23.1817 125.432 22.8181 123.785 22.0908C122.138 21.3635 120.858 20.3635 119.943 19.0908C119.028 17.8181 118.57 16.3635 118.57 14.6363C118.57 12.9999 119.028 11.4545 119.943 10.1817C120.858 8.909 122.138 7.909 123.785 7.18173C125.432 6.45446 127.353 6.09082 129.549 6.09082C131.745 6.18173 133.666 6.45446 135.313 7.18173Z" fill="#5F3473"></path><path d="M121.498 21.2727C121.864 21.4545 122.139 21.6364 122.413 22C122.596 22.2727 122.687 22.6364 122.687 23C122.687 23.3636 122.596 23.7273 122.413 24C122.23 24.2727 121.864 24.5455 121.498 24.7273C121.132 24.9091 120.675 25 120.217 25C119.76 25 119.302 24.9091 118.936 24.7273C118.57 24.5455 118.296 24.3636 118.022 24C117.839 23.7273 117.747 23.3636 117.747 23C117.747 22.6364 117.839 22.2727 118.022 22C118.205 21.7273 118.479 21.4545 118.936 21.2727C119.302 21.0909 119.76 21 120.217 21C120.675 21.0909 121.132 21.1818 121.498 21.2727Z" fill="#5F3473"></path></svg>