<svg xmlns="http://www.w3.org/2000/svg" id="Layer_1" viewBox="0 0 221.18 70.13"><defs><style>      .st0 {        fill: #0c4ea7;      }    </style></defs><path class="st0" d="M61.08,9.01c-9.64.99-21.31,10.16-29.11,28.85H5.29C18.57,8.95,43.7,2.5,67.43,2.5h51.63l-8.2,17.65c-6.06-4.06-19.35-10.16-27.66-11.09l-26.91,58.17h-22.18L61.08,9.01ZM72.74,59.92c0-2.73.81-5.11,2.6-9l11.72-25.26h21.25l-10.57,22.88c-.69,1.51-.98,2.67-.98,3.43,0,.87.4,1.68,1.85,1.68,3.46,0,10.57-8.88,13.74-13.12,6.24-8.88,16.57-15.56,25.35-15.56,4.16,0,8.14,1.28,10.92,3.95l1.5-3.25h20.73l-10.11,22.35c-.87,1.86-1.04,2.9-1.04,3.6,0,1.33.81,2.09,2.43,2.09,4.16,0,11.23-8.75,14.67-15.91,4.23-8.81,16.8-35.3,16.8-35.3h21.25l-20.1,42.9c-1.44,3.08-1.85,4.82-1.85,5.92,0,1.39.87,2.38,2.77,2.38,3.64,0,9.01-6.56,13.17-13.82h7.05c-10.51,20.09-22.23,28.27-32.57,28.27-8.03,0-12.36-3.89-12.36-12.02,0-.41,0-.81.06-1.28-7.05,8.24-15.48,13.3-22.58,13.3-7.8,0-10.69-3.83-10.69-8.88,0-.87.06-1.8.17-2.55-5.49,6.62-12.71,11.44-19.87,11.44-6.64,0-11.26-3.89-11.26-12.08,0-.58,0-1.1.06-1.74-8.03,8.82-16.4,13.82-23.97,13.82-6.01,0-10.16-2.96-10.16-8.24h0ZM146.08,34.03c-.98-1.16-2.54-1.97-4.62-1.97-5.77,0-13.11,9.7-13.11,17.13,0,3.02,1.5,4.47,3.41,4.47,4.1,0,9.99-7.37,14.32-19.62h0Z"></path></svg>