<?xml version="1.0" encoding="UTF-8"?>
<svg id="Layer_1" xmlns="http://www.w3.org/2000/svg" version="1.1" viewBox="0 0 57.26 57.53">
  <!-- Generator: Adobe Illustrator 30.3.0, SVG Export Plug-In . SVG Version: 2.1.3 Build 182)  -->
  <defs>
    <style>
      .st0, .st1 {
        fill: #a7aa36;
      }

      .st2 {
        fill: #b6354a;
      }

      .st1 {
        fill-rule: evenodd;
      }
    </style>
  </defs>
  <path class="st0" d="M49.02,21.95l-1.56-3.04-2.13,1.99-.15-.16,2.34-2.19,1.69,3.3-.19.1Z"/>
  <path class="st0" d="M16.31,20.18l-.15-.16,14.17-13.87,8.65,10.93-.17.14-8.5-10.74-13.99,13.7Z"/>
  <path class="st0" d="M2.28,29l-.17-.14,10.36-12.8,2.35,4.2-.19.11-2.19-3.92L2.28,29Z"/>
  <path class="st0" d="M16.16,8.19c-.77.05-.81.09-.86.86-.05-.77-.09-.81-.86-.86.77-.05.81-.09.86-.86.05.77.09.81.86.86Z"/>
  <path class="st0" d="M23.63,10.28c-1.74.11-1.84.2-1.95,1.95-.11-1.74-.2-1.83-1.95-1.95,1.74-.11,1.84-.2,1.95-1.95.11,1.74.2,1.83,1.95,1.95Z"/>
  <path class="st0" d="M20.13,12.78c-.87.06-.92.1-.98.98-.06-.87-.1-.92-.98-.98.87-.06.92-.1.98-.98.06.87.1.92.98.98Z"/>
  <path class="st0" d="M43.16,12.96c-.87.06-.92.1-.98.98-.06-.87-.1-.92-.98-.98.87-.06.92-.1.98-.98.06.87.1.92.98.98Z"/>
  <path class="st0" d="M40.85,7.67c-.56.04-.59.06-.62.62-.04-.56-.06-.59-.62-.62.56-.04.59-.06.62-.62.04.56.06.59.62.62Z"/>
  <path class="st0" d="M35.29,25.92c.19.3,1.63,2.58,1.67,2.65.02-.04,4.45-8.94,4.68-9.47l-11.33-12.79,6.66,10-11-5.8,2.69,4.23c.1-.02,6.62,11.18,6.62,11.18h0Z"/>
  <path class="st0" d="M55.29,28.82v-.02s-.82-1.05-.82-1.05l-6.97-9.02,2.97,10.06s.02.01.03.02c.14.02.37.05.66.08.24.02.52.04.82.05.3.01.62.02.94.02.32,0,.64,0,.94-.02.3-.01.58-.03.82-.05.04,0,.08,0,.12-.01.21-.02.38-.04.49-.06h0Z"/>
  <path class="st0" d="M53.84,29.14c-.3-.01-.62-.02-.94-.02-.32,0-.64,0-.94.02-.3.01-.58.03-.82.05-.22.02-.4.04-.54.06,0,.08,0,.17,0,.28.01.33.03.8.06,1.36.03.56.07,1.22.12,1.92.05.7.12,1.45.18,2.2.07.75.15,1.49.23,2.19.08.7.16,1.35.23,1.91.07.56.15,1.02.19,1.35,0,0,0,.01,0,.02l3.74-11.2c-.12-.02-.38-.06-.72-.09-.24-.02-.52-.04-.82-.05h0Z"/>
  <path class="st0" d="M19.82,16.58l.7,12.19h0l-8.06-12.52,3.14,10.01-8.44-3.5c.05,2.01.11,4.03.16,6.04.09,0,.2.01.33.02.37.01.89.05,1.51.07.63.02,1.36.04,2.14.05.78.01,1.62.02,2.45.02.84,0,1.67,0,2.45-.02.78-.01,1.51-.03,2.14-.05.63-.02,1.15-.05,1.51-.07.22-.01.38-.02.47-.03.03,0,.05-.02.08-.02.03,0,.07,0,.1,0,0,0,.01,0,.02,0,.11,0,.32.02.61.03.45.01,1.1.05,1.87.06.78.01,1.68.05,2.65.06.97.01,2,.02,3.03.02,1.03,0,2.07,0,3.03-.02.97-.01,1.87-.04,2.65-.05.78-.02,1.42-.05,1.87-.06.19,0,.34-.02.45-.02l-16.9-12.22h0Z"/>
  <path class="st0" d="M33.47,10.12l-.1-.13-2.84-3.59-.13-.17-.06-.08-.08.08-.17.16-4.89,4.78-.11.11-5.02,4.91-.21.2-3.66,3.58-.03.03.08.08.08.08,3.91-3.83.2-.2,4.8-4.7.12-.11,4.96-4.86,2.91,3.68.1.12,4.76,6.02.17.22.55.7.17-.14-.4-.51-.18-.23-4.92-6.22Z"/>
  <path class="st0" d="M55.26,28.78s-.09-.21-.23-.59c-.14-.37-.35-.91-.59-1.55-.24-.64-.51-1.39-.8-2.2-.29-.81-.58-1.67-.88-2.54-.29-.87-.58-1.73-.84-2.55-.26-.82-.5-1.58-.7-2.24-.2-.66-.36-1.21-.47-1.59-.05-.19-.1-.34-.12-.44.02-.06.02-.12,0-.19-.03-.08-.1-.13-.17-.15-.06-.06-.16-.15-.29-.27-.24-.23-.58-.54-.99-.94-.4-.39-.87-.85-1.36-1.35-.5-.5-1.01-1.04-1.53-1.58-.51-.54-1.03-1.09-1.5-1.61-.48-.52-.91-1.01-1.29-1.43-.37-.42-.67-.78-.89-1.03-.09-.1-.16-.19-.21-.25v-.02c-.02-.12-.12-.2-.23-.21-.03-.01-.07-.01-.1-.01-.1-.02-.26-.06-.48-.11-.37-.1-.9-.22-1.53-.39-.63-.16-1.37-.37-2.16-.59-.79-.22-1.62-.47-2.46-.71-.84-.25-1.67-.5-2.45-.75-.78-.25-1.51-.48-2.13-.69-.62-.21-1.14-.39-1.49-.52-.19-.07-.34-.12-.44-.16-.05-.05-.13-.08-.2-.07-.07,0-.15.02-.2.07-.1.04-.25.09-.44.16-.36.12-.87.31-1.49.52-.62.21-1.35.44-2.13.69-.78.25-1.61.5-2.45.75-.84.25-1.67.49-2.46.71-.79.22-1.52.42-2.16.59-.63.17-1.16.29-1.53.39-.21.05-.38.09-.47.11-.04,0-.07,0-.1.01,0,0-.02,0-.03,0-.11.02-.19.11-.21.22-.05.06-.13.15-.21.25-.21.25-.51.61-.89,1.03-.37.42-.81.91-1.29,1.43-.47.52-.99,1.06-1.5,1.61-.52.54-1.04,1.08-1.53,1.58-.49.5-.96.96-1.36,1.35-.4.39-.75.71-.99.94-.13.12-.23.21-.29.27-.1.03-.17.1-.19.21,0,.03,0,.06,0,.09-.03.1-.08.27-.15.49-.13.39-.3.95-.52,1.62-.22.67-.48,1.44-.77,2.27-.29.83-.6,1.71-.92,2.59-.32.88-.65,1.75-.96,2.57-.31.82-.61,1.58-.87,2.23-.26.65-.49,1.19-.64,1.57-.16.38-.25.59-.25.59,0,0,0,.02,0,.03-.04.13.04.27.17.31.13.04.27-.04.31-.17,0,0,.02-.05.05-.16l-.14-.12.29-.35c.13-.39.29-.94.51-1.6.22-.67.48-1.44.77-2.27.29-.83.6-1.71.92-2.59.32-.88.64-1.76.96-2.57.31-.82.61-1.58.87-2.23.17-.43.33-.81.46-1.13.01.31.03.67.04,1.08.02.66.04,1.43.05,2.25.01.82.02,1.7.02,2.58,0,.27,0,.54,0,.8l.16-.19c0-.2,0-.4,0-.61,0-.88,0-1.76.02-2.58.01-.82.03-1.59.05-2.25.02-.66.05-1.21.07-1.59,0-.12.01-.22.02-.31.21.04.53.1.91.18.36.08.78.17,1.23.28.45.11.92.24,1.4.37.44.12.87.25,1.28.37l.13-.16c-.44-.11-.9-.23-1.37-.36-.47-.14-.94-.27-1.39-.4-.44-.14-.85-.27-1.2-.39-.28-.09-.51-.18-.7-.25.05-.04.11-.08.17-.12.36-.25.86-.62,1.48-1.04.62-.42,1.33-.92,2.11-1.44.78-.52,1.61-1.07,2.44-1.61.84-.54,1.68-1.08,2.47-1.58.79-.5,1.54-.95,2.17-1.34.58-.36,1.08-.64,1.44-.86-.13.27-.29.61-.47.99-.25.52-.55,1.12-.88,1.75-.33.64-.69,1.31-1.04,1.99-.36.67-.73,1.34-1.08,1.97-.35.63-.68,1.21-.98,1.7-.29.5-.54.9-.72,1.19-.07.12-.14.22-.18.29-.21-.04-.57-.1-1.02-.2-.25-.05-.53-.12-.83-.19l.16.28c.21.07.41.13.59.19.36.12.66.23.87.31-.04.08-.09.16-.15.27-.11.2-.25.44-.42.73l.08.12.14.21c.23-.33.43-.61.58-.83.04-.06.08-.11.12-.16.02.04.05.09.08.14.17.32.43.77.72,1.32.29.55.63,1.2.98,1.89.35.69.72,1.44,1.08,2.19.36.75.72,1.5,1.05,2.2.22.46.42.91.6,1.32l1.39,2.15h0l-.02-.28s-.03.05-.05.07c-.02-.04-.05-.08-.07-.13-.17-.32-.43-.77-.72-1.33-.29-.55-.63-1.2-.98-1.89-.35-.69-.72-1.44-1.08-2.19-.36-.75-.72-1.5-1.05-2.2-.12-.25-.23-.5-.34-.74l-.08-.08.03-.03c-.18-.39-.34-.76-.49-1.1-.25-.57-.45-1.05-.6-1.38-.04-.09-.07-.17-.1-.24.08-.02.18-.04.29-.06.38-.07.93-.19,1.58-.3.65-.12,1.42-.25,2.24-.39.24-.04.49-.08.73-.12l.21-.2c-.33.05-.65.09-.97.13-.83.11-1.6.21-2.26.28-.66.08-1.22.13-1.6.17-.06,0-.11.01-.16.02,0-.02.02-.05.03-.07.15-.3.34-.74.6-1.25.25-.52.55-1.12.88-1.75.33-.64.69-1.31,1.05-1.99.37-.67.73-1.34,1.08-1.97.35-.63.68-1.21.98-1.7.29-.5.54-.9.71-1.19.04-.07.08-.13.11-.18.04.04.09.09.15.14.24.23.58.54.99.94.4.39.87.85,1.36,1.35.5.5,1.01,1.04,1.53,1.58.18.2.37.39.55.58l.11-.11c-.18-.19-.37-.38-.55-.58-.51-.54-1.03-1.09-1.5-1.61-.48-.52-.91-1.01-1.29-1.43-.37-.42-.67-.78-.89-1.03.06,0,.12,0,.19,0,.45-.01,1.1-.05,1.87-.06.78-.01,1.68-.05,2.65-.06.97-.01,2-.02,3.03-.02.46,0,.91,0,1.36,0l.17-.16c-.5,0-1.02,0-1.53,0-1.03,0-2.07,0-3.03-.02-.97,0-1.87-.04-2.65-.05-.69-.01-1.28-.04-1.72-.06.15-.08.31-.18.49-.28.38-.21.82-.44,1.3-.69.48-.25.99-.5,1.51-.75.52-.25,1.04-.49,1.53-.71.49-.22.95-.42,1.35-.59.4-.17.73-.3.97-.39.11-.04.2-.08.26-.1.06.02.15.06.26.1.23.1.57.22.97.39.4.17.86.37,1.35.59.49.22,1.01.47,1.53.71.51.25,1.03.5,1.51.75.48.25.92.48,1.3.69.18.1.35.19.49.28-.44.02-1.03.05-1.72.06-.77.02-1.68.05-2.65.06-.44,0-.9.01-1.36.01l.13.17c.42,0,.83,0,1.23.01.97.01,1.87.04,2.65.06.78.02,1.42.05,1.87.06.07,0,.13,0,.2,0-.21.25-.51.61-.89,1.03-.37.42-.81.91-1.29,1.43-.3.33-.61.66-.93,1l.1.13c.33-.34.65-.68.97-.99.49-.5.96-.96,1.36-1.35.4-.39.75-.71.99-.94.05-.05.1-.1.15-.14.03.05.07.11.11.18.17.29.43.69.71,1.19.29.49.63,1.08.98,1.7.35.63.72,1.3,1.08,1.97.36.68.72,1.35,1.04,1.99.33.64.63,1.24.88,1.75.25.51.45.95.6,1.25.01.02.02.05.03.07-.05,0-.1,0-.16-.02-.39-.04-.94-.09-1.6-.17-.65-.07-1.4-.17-2.21-.28l.18.23c.72.12,1.4.24,1.99.35.66.12,1.2.23,1.58.3.21.04.37.07.47.1,0,0,.02,0,.03.01.06.08.16.22.28.39.22.32.54.77.91,1.32.37.55.8,1.19,1.26,1.89.46.69.93,1.44,1.41,2.18.47.75.94,1.5,1.37,2.21.43.71.83,1.37,1.17,1.94.34.57.61,1.05.8,1.39.03.06.06.11.09.16.09,0,.19,0,.28,0-.06.04-.1.1-.11.17.02-.04.03-.06.03-.06.02-.05.06-.08.1-.1.06,0,.12,0,.18,0,.03,0,.05,0,.08,0,.02.01.04.03.05.05-.01-.02-.03-.03-.05-.05.03,0,.06,0,.09,0,0-.1-.01-.23-.02-.39-.01-.39-.05-.93-.07-1.59-.02-.66-.04-1.43-.05-2.25-.01-.82-.02-1.7-.02-2.58,0-.88,0-1.76.02-2.58.01-.82.03-1.59.05-2.25.01-.38.03-.72.04-1.01.11.29.25.64.39,1.03.24.64.51,1.4.8,2.2.29.81.59,1.67.88,2.54.29.87.58,1.73.84,2.55.26.82.5,1.58.7,2.24.12.38.22.72.3,1.02l.81,1.05s0-.02,0-.03h0ZM19.76,6.5c-.36.25-.86.62-1.48,1.04-.62.42-1.33.92-2.11,1.44-.78.52-1.61,1.07-2.44,1.61-.84.54-1.68,1.08-2.47,1.58-.79.5-1.54.95-2.17,1.34-.31.19-.6.36-.85.52.08-.09.16-.19.25-.28.37-.42.81-.91,1.29-1.43.47-.52.99-1.06,1.5-1.61.52-.54,1.04-1.08,1.53-1.58.49-.5.96-.96,1.36-1.35.4-.39.75-.71.99-.94.14-.14.25-.23.31-.29.13-.02.37-.05.68-.08.24-.02.52-.04.82-.05.3-.01.62-.02.94-.02.32,0,.64,0,.94.02.3.01.58.03.82.05.05,0,.1,0,.14.01-.01,0-.02.02-.04.03h0ZM26.06,3.49c-.48.25-.99.5-1.51.75-.52.25-1.04.49-1.53.71-.49.22-.95.42-1.35.59-.4.17-.73.3-.96.39-.1.04-.19.07-.25.1-.01,0-.02,0-.03,0h-.01s-.08.02-.11.04c-.14.02-.37.05-.65.08-.24.02-.52.04-.82.05-.3.01-.62.02-.94.02-.32,0-.64,0-.94-.02-.18,0-.35-.02-.51-.03.29-.1.64-.22,1.03-.35.62-.21,1.35-.44,2.13-.69.78-.25,1.61-.5,2.45-.75.84-.25,1.67-.49,2.46-.71.79-.22,1.52-.42,2.16-.59.11-.03.23-.06.34-.09-.29.16-.61.32-.94.49h0ZM41.97,6.54c.06.06.17.16.31.29.24.23.58.54.99.94.4.39.87.85,1.36,1.35.5.5,1.01,1.04,1.53,1.58.51.54,1.03,1.09,1.5,1.61.48.52.91,1.01,1.29,1.43.09.1.17.19.25.28-.26-.15-.54-.32-.85-.52-.64-.39-1.38-.84-2.17-1.34-.79-.5-1.63-1.04-2.47-1.58-.83-.54-1.67-1.09-2.44-1.61-.78-.52-1.49-1.02-2.11-1.44-.62-.42-1.12-.79-1.48-1.04-.01,0-.02-.02-.04-.03.05,0,.09,0,.14-.01.24-.02.52-.04.82-.05.3-.01.62-.02.94-.02.32,0,.64,0,.94.02.3.01.58.03.82.05.31.03.55.06.68.08h0ZM37,6.04s-.02,0-.03,0c-.06-.02-.15-.06-.25-.1-.23-.1-.57-.22-.96-.39-.4-.17-.86-.37-1.35-.59-.49-.22-1.01-.47-1.53-.71-.51-.25-1.03-.5-1.51-.75-.34-.17-.65-.34-.94-.49.11.03.22.06.33.09.63.17,1.37.37,2.16.59.79.22,1.62.47,2.46.71.84.25,1.67.5,2.45.75.78.25,1.51.48,2.13.69.39.13.74.25,1.03.35-.16.01-.33.02-.51.03-.3.01-.62.02-.94.02-.32,0-.64,0-.94-.02-.3-.01-.58-.03-.82-.05-.28-.02-.51-.05-.65-.08-.04-.02-.08-.04-.12-.04h0ZM42.9,16.82c-.05-.07-.11-.17-.18-.29-.17-.29-.43-.69-.72-1.19-.29-.49-.63-1.08-.98-1.7-.35-.63-.72-1.3-1.08-1.97-.36-.68-.72-1.35-1.04-1.99-.33-.64-.63-1.24-.88-1.75-.19-.38-.35-.72-.47-.99.37.22.86.51,1.44.86.64.39,1.38.84,2.17,1.34.79.5,1.63,1.04,2.47,1.58.83.54,1.67,1.09,2.44,1.61.78.52,1.49,1.02,2.11,1.44.62.42,1.12.79,1.48,1.04.06.05.12.09.17.12-.19.07-.43.15-.7.25-.35.12-.76.25-1.2.39-.44.14-.91.27-1.39.41-.47.13-.95.26-1.4.37-.45.11-.87.21-1.23.28-.45.1-.81.16-1.02.2h0ZM50.25,24.6c-.01.82-.03,1.59-.05,2.25-.02.59-.05,1.09-.06,1.46-.22-.31-.51-.72-.84-1.22-.37-.55-.8-1.19-1.26-1.89-.46-.69-.93-1.44-1.41-2.18-.47-.75-.94-1.5-1.37-2.21-.43-.71-.83-1.37-1.17-1.94-.34-.57-.61-1.05-.8-1.39-.06-.1-.11-.19-.15-.27.2-.08.5-.19.87-.31.35-.12.76-.25,1.2-.39.44-.14.91-.27,1.39-.4.47-.13.95-.26,1.4-.36.45-.11.87-.21,1.23-.28.38-.08.69-.14.91-.18,0,.09,0,.19.02.31.01.39.05.93.07,1.59.02.66.04,1.43.05,2.25.01.82.02,1.7.02,2.58,0,.88,0,1.76-.02,2.58h0Z"/>
  <path class="st0" d="M42.08,41.88c.03.07.06.15.09.21.05-.08.11-.17.17-.26h0c.2-.32.44-.7.7-1.13.07-.11.14-.23.21-.34.07-.11.14-.23.22-.35,0,0,0,0,0,0l.02-.03c.3-.48.6-.97.92-1.5.46-.75.94-1.57,1.41-2.36l.22-.38s.02-.04.03-.06c.28-.49.57-.98.85-1.47.02-.03.04-.06.05-.1.04-.07.08-.13.12-.2.12-.2.23-.4.34-.6.31-.54.59-1.04.86-1.54h0c.15-.26.28-.51.41-.74.17-.3.32-.58.45-.83.06-.12.12-.23.18-.33h0c.08-.16.15-.3.22-.42-.07,0-.15,0-.23-.01h-.02c-.3-.02-.68-.04-1.09-.05-.65-.02-1.39-.04-2.14-.05-.71-.01-1.49-.02-2.23-.02h-.37c-.77,0-1.56,0-2.3.02-.76.01-1.5.03-2.14.05-.41.01-.79.03-1.09.05h-.02c-.14,0-.26.01-.37.02v.03c.05.13.1.28.15.45.1.32.23.72.37,1.16.19.59.42,1.27.66,1.96.03.1.07.2.1.3.27.78.57,1.63.87,2.45l.13.36c.29.79.59,1.6.87,2.35.3.79.6,1.56.87,2.23.17.43.33.81.45,1.12h0Z"/>
  <path class="st0" d="M16.34,51.36c.3.01.67.03,1.09.05.65.02,1.39.04,2.14.05.63.01,1.29.02,1.95.02h.64c.77,0,1.57,0,2.31-.02.76-.01,1.5-.03,2.14-.05.26,0,.52-.02.73-.03-.27-.19-.58-.41-.93-.65-.21-.15-.44-.3-.67-.46h0c-.45-.32-.92-.64-1.43-.98-.35-.24-.73-.49-1.1-.73,0,0-.02-.01-.03-.02,0,0-.02-.01-.03-.02-.38-.25-.76-.5-1.13-.74l-.36-.24c-.38-.24-.76-.49-1.14-.73-.38-.24-.75-.48-1.12-.71-.38-.24-.75-.47-1.11-.69-.12-.07-.24-.15-.35-.22h-.02c-.24-.16-.47-.3-.69-.43-.16-.1-.31-.19-.45-.28-.24-.15-.46-.28-.65-.39h-.01c-.13-.09-.26-.16-.37-.22-.01.17-.03.37-.04.59-.02.41-.04.89-.05,1.38-.01.48-.02,1-.02,1.5v.23c0,.48,0,.98.02,1.45.01.49.03.97.05,1.38,0,.2.02.39.04.55,0,.05,0,.1.01.15h0s0,.09,0,.12c0,.01,0,.03,0,.04,0,.02,0,.04,0,.06.04,0,.09,0,.14,0h.01c.09,0,.2,0,.31.01.04,0,.08,0,.12,0h0Z"/>
  <path class="st0" d="M5.68,39c.02.06.05.12.07.18,0-.03,0-.07.01-.1.04-.28.08-.58.11-.89,0-.07.02-.14.02-.21,0-.02,0-.04,0-.06,0,0,0-.02,0-.02.03-.24.05-.48.08-.72.07-.64.14-1.33.2-1.99l.03-.34c.06-.69.12-1.4.17-2.06.05-.68.1-1.34.12-1.91.02-.37.03-.7.04-.97h.11-.11s0-.08,0-.11c0-.1,0-.2.01-.28,0-.03,0-.05,0-.08-.1-.01-.21-.02-.32-.03h-.02c-.18-.02-.38-.03-.6-.04-.07,0-.14,0-.21,0-.28-.01-3.59-.14-3.66-.13.03.11,3.69,9.21,3.9,9.77h0Z"/>
  <path class="st0" d="M49.97,42.11s0-.01.01-.02c.02-.03.05-.06.07-.09,0,0,0,0,0,0,.02-.03.05-.06.07-.09h0s.05-.07.07-.1c.04-.05.09-.11.13-.16l-.02-.02s-.08.01-.12.02c0,0-.01,0-.02,0-.04,0-.08.01-.12.02-.06,0-.11.02-.17.03-.41.07-.87.16-1.34.25-.39.08-.8.16-1.22.25-.14.03-.27.06-.41.09l-.24.05c-.52.12-1.07.25-1.57.37-.07.02-.13.03-.2.05-.46.11-.9.23-1.29.34-.29.08-.54.15-.75.21-.11.03-.21.06-.3.09-.02,0-.05.01-.07.02,0,.01,0,.02,0,.04,0,.08-.01.17-.02.28-.01.19-.03.44-.05.7-.02.42-.04.9-.05,1.38-.01.47-.02.97-.02,1.46v.22c0,.13,0,.25,0,.38,0,.38,0,.76.02,1.12.01.49.03.98.05,1.38,0,.1.01.2.02.29,0,0,0,0,0,0,.22-.23.5-.52.79-.84.47-.51,1-1.09,1.54-1.69.51-.57,1.05-1.18,1.58-1.78l.27-.31c.4-.47.81-.94,1.21-1.41.13-.15.26-.31.39-.46.53-.63,1.03-1.23,1.46-1.76.05-.06.1-.13.15-.19,0,0,.02-.02.02-.03.01-.01.02-.03.04-.04.02-.02.04-.04.05-.06h0Z"/>
  <path class="st0" d="M50.34,41.64s0,0,0,0c0,0-.01,0-.02,0h.01s0,0,0,0Z"/>
  <path class="st0" d="M41.66,51.11c.01-.2.03-.44.05-.7.02-.41.04-.89.05-1.39.01-.48.02-.99.02-1.49v-.23c0-.49,0-.99-.02-1.46-.01-.49-.03-.97-.05-1.38,0-.22-.02-.42-.04-.59-.11.07-.24.14-.38.22-.31.18-.69.41-1.1.67-.21.13-.44.27-.68.42h-.02c-.47.3-.95.6-1.47.92-.75.47-1.55.99-2.33,1.49l-.35.23c-.75.49-1.52.99-2.23,1.47-.51.34-.98.66-1.43.97h0c-.23.17-.46.32-.67.47-.24.16-.47.32-.68.47-.09.06-.17.12-.25.18.23.01.47.02.73.03.65.02,1.39.04,2.14.05.71.01,1.49.02,2.23.02h.36c.77,0,1.57,0,2.31-.02.76-.01,1.5-.03,2.14-.05.41-.01.79-.03,1.09-.05.16,0,.3-.01.43-.02.05,0,.1,0,.15,0,0-.07,0-.14.02-.22h0Z"/>
  <path class="st0" d="M29.02,48.36c.01.61.03,1.2.05,1.72,0,.25.02.49.04.69,0,.07,0,.13.01.19v.03c.11-.06.23-.14.37-.22.31-.18.69-.41,1.11-.67.22-.14.45-.28.69-.42h.01c.47-.3.95-.59,1.47-.92.73-.46,1.51-.96,2.27-1.45l.35-.23c.77-.5,1.56-1.02,2.29-1.51.5-.34.97-.66,1.42-.97h.01c.24-.17.46-.33.68-.47.41-.28.77-.54,1.06-.74.03-.02.06-.05.1-.07-.25-.05-.55-.11-.87-.18-.05,0-.09-.02-.14-.03-.63-.12-1.37-.26-2.13-.39-.72-.13-1.51-.25-2.27-.38,0,0-.02,0-.03,0l-.35-.05c-.75-.11-1.53-.23-2.25-.33-.55-.08-1.08-.15-1.59-.21-.19-.02-.38-.05-.56-.07-.41-.05-.79-.09-1.09-.12-.1,0-.18-.02-.27-.03-.06,0-.11-.01-.17-.02-.03,0-.05,0-.08,0,0,.09,0,.18-.02.29v.02c-.02.24-.03.54-.05.87-.02.51-.04,1.11-.05,1.72-.01.59-.02,1.23-.02,1.85v.29c0,.61,0,1.23.02,1.81h0Z"/>
  <path class="st0" d="M17.37,42.39c.65-.08,1.39-.18,2.15-.28.72-.1,1.5-.22,2.25-.33h.03s.33-.06.33-.06c.77-.12,1.56-.25,2.29-.38.76-.13,1.49-.27,2.13-.39.05,0,.1-.02.15-.03.04,0,.08-.02.12-.02,0,0,.02,0,.03,0,.29-.06.55-.11.78-.16h0c.12-.03.23-.05.33-.07-.03-.04-.05-.09-.08-.13,0,0-.01-.02-.02-.03,0,0,0,0,0,0-.03-.05-.07-.11-.1-.17h0c-.06-.11-.13-.21-.2-.32,0,0-.01-.02-.02-.03-.01-.02-.02-.04-.03-.05-.01-.02-.03-.05-.05-.07,0,0,0-.01-.01-.02-.02-.04-.05-.07-.07-.1,0,0-.01-.02-.02-.03-.08-.12-.16-.24-.24-.37-.37-.58-.81-1.25-1.28-1.94-.44-.66-.93-1.38-1.4-2.07l-.22-.32c-.46-.67-.95-1.36-1.4-1.99-.48-.67-.95-1.32-1.37-1.88-.26-.36-.51-.68-.7-.94h-.01c-.05-.09-.11-.15-.15-.22-.04.09-.07.18-.11.28-.03.08-.06.15-.1.24,0,0,0,0,0,0,0,0,0,0,0,.01-.08.19-.16.39-.25.6-.03.09-.07.17-.1.26-.07.16-.13.34-.2.51-.21.53-.44,1.11-.66,1.71h0c-.19.49-.37.99-.56,1.5,0,0,0,.02,0,.03-.11.3-.22.6-.33.9l-.14.38c-.28.79-.57,1.6-.83,2.35-.28.79-.54,1.58-.77,2.26-.15.44-.27.83-.37,1.16-.03.1-.06.2-.09.29,0,.03-.02.07-.03.1.09,0,.19-.02.3-.03.28-.03.67-.07,1.09-.12h0Z"/>
  <path class="st2" d="M41.13,42.52h.02c.1.01.19.02.27.03-.03-.1-.07-.22-.11-.35v-.03c-.06-.16-.12-.34-.18-.53h0s-.02-.06-.03-.09c0-.02-.01-.04-.02-.06,0-.01,0-.03-.01-.04-.01-.04-.02-.07-.04-.11-.02-.05-.03-.1-.05-.16-.02-.05-.04-.11-.05-.16-.22-.69-.49-1.47-.77-2.27-.26-.76-.55-1.57-.84-2.36h0s-.13-.36-.13-.36c-.3-.81-.61-1.65-.9-2.43-.3-.79-.6-1.57-.87-2.23-.17-.43-.34-.83-.46-1.12-.04-.1-.08-.19-.12-.28-.03.04-.06.08-.1.13-.02.02-.04.05-.05.07v.02c-.16.19-.34.42-.53.68-.06.09-.13.17-.2.26-.41.55-.88,1.2-1.37,1.88-.46.64-.95,1.34-1.42,2.01l-.25.36c-.46.67-.94,1.36-1.37,2.01-.45.68-.9,1.35-1.28,1.94-.16.24-.3.47-.43.68-.07.11-.14.22-.2.32-.08.13-.15.24-.22.35.1.02.21.04.33.07.3.06.67.14,1.08.22.65.13,1.38.26,2.13.39.71.13,1.49.25,2.24.37l.35.05c.78.12,1.58.24,2.32.34.1.01.19.03.29.04.66.09,1.3.18,1.86.24.41.05.79.09,1.09.12h0Z"/>
  <path class="st0" d="M50.95,40.13h0c0-.28-.02-.61-.05-.98-.03-.57-.07-1.23-.12-1.91-.05-.66-.11-1.38-.17-2.06l-.03-.32c-.06-.66-.13-1.35-.2-1.99-.07-.67-.15-1.33-.23-1.91-.03-.22-.06-.43-.09-.62-.2.31-.44.68-.7,1.09-.13.22-.28.44-.42.69l-.02.03c-.07.12-.15.24-.22.36,0,0-.01.02-.02.03-.18.28-.35.57-.54.87-.05.08-.1.16-.15.24-.46.76-.96,1.6-1.44,2.4l-.22.38c-.46.79-.94,1.61-1.37,2.37-.08.14-.15.27-.23.4-.22.39-.43.77-.64,1.14-.11.19-.21.38-.31.56-.03.06-.07.12-.1.18-.24.44-.46.83-.63,1.16-.05.09-.09.18-.14.25.16-.03.35-.05.55-.09.46-.08.98-.18,1.51-.28.5-.1,1.04-.22,1.56-.33l.25-.06c.54-.12,1.1-.25,1.61-.38.53-.13,1.05-.27,1.49-.39.1-.03.2-.05.29-.08.17-.05.32-.1.46-.13h0s0,0,0,0h0s.02,0,.03,0c.02,0,.03,0,.05-.01.02,0,.03,0,.05-.01,0,0,.02,0,.03,0,.04-.01.08-.02.12-.03,0,0,.01,0,.02,0,.01,0,.02,0,.03,0,0-.05,0-.09,0-.14,0-.11,0-.24-.01-.38h0Z"/>
  <path class="st0" d="M27.91,50.76h0c.13.08.25.15.36.22v-.02h0c.02-.25.03-.55.05-.88.02-.52.04-1.12.05-1.72,0-.44.01-.9.02-1.36,0-.15,0-.31,0-.46v-.28c0-.62,0-1.26-.02-1.86-.01-.61-.03-1.21-.05-1.72,0-.12,0-.24-.02-.35h0s0-.06,0-.09v-.07c0-.13-.01-.26-.02-.37h0s0-.08,0-.11c0-.07,0-.14-.01-.2-.03,0-.05,0-.08,0-.12.01-.27.03-.43.05-.3.03-.66.07-1.05.12-.01,0-.02,0-.04,0-.4.05-.84.1-1.3.17-.28.04-.56.08-.85.12-.42.06-.86.12-1.3.19-.04,0-.08.01-.12.02h0c-.29.04-.58.09-.86.13l-.38.06c-.47.08-.94.15-1.41.23-.28.05-.55.09-.82.14-.75.13-1.49.26-2.13.39-.24.05-.46.09-.67.13-.12.03-.24.05-.35.07.03.02.06.05.1.07.29.21.65.46,1.06.74.05.04.11.07.16.11.17.11.34.23.52.35.45.31.92.63,1.43.97.27.18.54.36.82.55.3.2.62.4.93.61.16.11.33.21.49.32l.35.22c.78.5,1.58,1.02,2.33,1.49.52.33,1,.62,1.47.91.25.15.48.3.7.43.41.26.8.48,1.1.66h0Z"/>
  <path class="st0" d="M6.51,40.67s.09.03.15.04c.03,0,.07.02.1.03.21.06.46.14.75.21.45.12.96.26,1.49.39.5.13,1.04.25,1.57.37l.24.05c.45.1.92.2,1.37.29.09.02.17.03.25.05.54.11,1.06.2,1.51.28.2.04.38.06.55.09-.04-.07-.08-.15-.13-.24h0c-.17-.33-.39-.73-.63-1.17-.13-.23-.26-.48-.41-.73h0c-.28-.5-.56-1.01-.87-1.54-.43-.75-.9-1.56-1.36-2.35l-.24-.41c-.12-.2-.24-.4-.36-.61-.36-.61-.73-1.22-1.08-1.79-.32-.54-.63-1.03-.93-1.5-.12-.19-.23-.37-.34-.54-.04-.06-.07-.12-.11-.17-.26-.42-.5-.79-.69-1.09-.03.19-.06.4-.09.62-.03.25-.07.52-.1.79-.04.36-.09.73-.13,1.11-.02.16-.04.33-.05.5,0,.05-.01.1-.02.16,0,.03,0,.07,0,.1,0,.02,0,.04,0,.05-.04.41-.08.83-.12,1.24l-.03.31c-.01.17-.03.34-.05.51-.05.51-.09,1.02-.12,1.5-.04.5-.07,1-.1,1.47,0,.15-.02.3-.03.45-.02.37-.03.7-.04.97,0,.09,0,.17,0,.25,0,.05,0,.09,0,.14,0,.05,0,.1,0,.14.01,0,.02,0,.03,0,.02,0,.03,0,.05.01h0Z"/>
  <path class="st0" d="M27.16,54.9c.24.06.46.11.65.16.12.03.24.06.34.08.03,0,.07.02.1.03.03,0,.05.01.08.02,0-.03,0-.05,0-.08.02-.19.04-.4.05-.63.01-.22.02-.45.02-.68v-.1c0-.22,0-.45-.02-.66-.01-.22-.03-.44-.05-.63,0-.07-.02-.14-.03-.2-.06,0-.12,0-.19,0-.12,0-.27-.01-.43-.02-.3-.01-.67-.03-1.09-.05-.64-.02-1.38-.04-2.14-.05-.74-.01-1.54-.02-2.32-.02h-.33c-.75,0-1.53,0-2.26.02-.62,0-1.22.02-1.78.04.19.06.38.13.58.19.41.14.85.27,1.29.41.72.23,1.5.46,2.25.69l.32.1c.14.04.28.08.42.12.65.19,1.3.38,1.91.55.17.05.34.1.5.14.59.16,1.15.31,1.65.44.15.04.3.08.45.12h0Z"/>
  <path class="st0" d="M14.14,49.84c.3.32.57.61.8.84,0,0,0,0,0,.01,0-.09.01-.19.02-.29.02-.42.04-.9.05-1.38,0-.32.01-.66.02-.99,0-.16,0-.31,0-.47v-.22c0-.5,0-1.02-.02-1.5-.01-.49-.03-.97-.05-1.38,0-.03,0-.07,0-.1-.01-.23-.03-.43-.04-.6,0-.1-.01-.2-.02-.28,0-.01,0-.02,0-.03-.02,0-.05-.01-.07-.02-.08-.02-.17-.05-.27-.08,0,0-.01,0-.02,0-.21-.06-.47-.14-.75-.22-.44-.12-.95-.26-1.49-.39-.51-.13-1.06-.25-1.6-.38l-.28-.06c-.45-.1-.92-.2-1.37-.29-.06-.01-.13-.03-.19-.04-.53-.11-1.05-.2-1.51-.28-.1-.02-.2-.04-.3-.05.19.23.4.51.65.81.43.53.93,1.13,1.46,1.76.5.6,1.06,1.24,1.59,1.86l.27.31c.53.6,1.07,1.22,1.58,1.78.54.6,1.07,1.18,1.54,1.69h0Z"/>
  <path class="st0" d="M37.84,52.09c-.74-.01-1.54-.02-2.32-.02h-.33c-.75,0-1.53,0-2.26.02-.19,0-.38,0-.56,0h-.1c-.06,0-.12,0-.17,0-.43,0-.85.02-1.24.04h-.07c-.36.01-.69.03-.97.04-.04,0-.08,0-.11,0-.16,0-.3.01-.43.02-.07,0-.13,0-.19,0,0,.07-.02.13-.03.2-.02.19-.04.41-.05.63,0,.16-.01.33-.02.5,0,.06,0,.11,0,.17v.1c0,.23,0,.46.02.68.01.23.03.44.05.63,0,.03,0,.05,0,.08.03,0,.05-.01.08-.02.09-.02.2-.05.31-.08.04,0,.08-.02.12-.03.3-.08.68-.17,1.09-.28.64-.17,1.39-.37,2.15-.59.09-.03.19-.05.28-.08.66-.19,1.37-.39,2.05-.59l.32-.1c.76-.23,1.53-.46,2.25-.69.65-.2,1.29-.41,1.87-.6-.55-.02-1.16-.03-1.78-.04h0Z"/>
  <path class="st0" d="M21.69,29.45h-.01c-.15,0-.29.01-.42.02.05.07.09.15.15.23h0c.05.08.1.17.16.25.14.22.3.48.47.74.38.59.82,1.26,1.28,1.94.18.27.37.55.56.83.26.39.54.78.8,1.17l.22.32c.06.09.12.17.18.26.43.61.86,1.23,1.27,1.8.48.68.95,1.32,1.37,1.88.16.22.32.43.46.62.09.11.16.22.24.31h0c.11.15.2.27.28.38h0c.08-.11.17-.23.28-.37h0c.2-.26.44-.58.7-.94.42-.57.89-1.22,1.37-1.88.44-.61.9-1.28,1.35-1.92.01-.02.03-.04.04-.06l.23-.33c.47-.69.96-1.41,1.41-2.07.12-.17.23-.34.34-.51.34-.51.65-.99.94-1.43.11-.16.21-.32.3-.47.01-.02.02-.04.04-.05,0,0,0,0,0,0,.05-.09.11-.17.16-.25.04-.07.08-.13.12-.19v-.02c.06-.08.11-.16.16-.23-.13,0-.27,0-.42-.02h0c-.12,0-.24,0-.38-.01-.29-.01-.62-.02-.96-.03-.07,0-.14,0-.2,0-.21,0-.42,0-.65-.02h-.02c-.56-.01-1.15-.03-1.78-.04-.91-.01-1.9-.02-2.85-.02h-.46c-.54,0-1.09,0-1.63,0h-.11c-.1,0-.21,0-.31,0h-.04c-.1,0-.19,0-.28,0h-.06c-.11,0-.22,0-.34,0-.63,0-1.22.02-1.79.04-.3,0-.58.01-.85.02-.5,0-.96.03-1.33.05h0Z"/>
  <path class="st0" d="M14.73,41.3s.03.04.04.06c.02.03.03.05.05.08,0,0,0,0,0,.01.08.13.16.25.23.36h0c.06.11.11.19.17.27.02-.06.05-.12.08-.19h0c.09-.23.2-.49.31-.77.03-.07.06-.14.09-.21.02-.05.04-.1.06-.16.27-.67.57-1.44.87-2.23.25-.65.51-1.35.76-2.04.04-.1.07-.2.11-.29l.14-.39c.07-.2.15-.41.22-.61.22-.62.44-1.23.64-1.82.15-.45.3-.89.45-1.31.05-.15.1-.29.15-.44,0-.02.02-.05.02-.07.05-.15.1-.31.15-.45.11-.32.2-.62.29-.89,0,0,0,0,0-.01,0,0,0-.02,0-.03.02-.08.05-.15.07-.23.05-.17.1-.32.15-.46v-.03c-.1,0-.22-.01-.35-.02h-.02c-.3-.02-.68-.04-1.09-.05-.65-.02-1.39-.04-2.14-.05-.62-.01-1.29-.02-1.95-.02h-.65c-.77,0-1.56,0-2.3.02-.76.01-1.5.03-2.14.05-.1,0-.2,0-.3,0-.29.01-.56.02-.78.04h-.02c-.08,0-.16,0-.24.01.07.12.14.27.23.42.17.32.39.72.63,1.16.11.2.23.42.36.64.02.03.03.06.05.09h0c.27.5.55,1.01.86,1.55.05.1.11.2.17.3.4.7.82,1.43,1.24,2.14l.22.38c.47.79.95,1.6,1.4,2.35.32.53.63,1.03.93,1.5h0c.15.26.3.49.44.72.13.21.26.41.38.6h0Z"/>
  <path class="st0" d="M50.08,28.63l-.03-.03s.04.08.06.11l.06.1h.03l-.12-.18Z"/>
  <path class="st0" d="M42.97,20.6l-.98-1.11h0c-.25.46-.51.98-.78,1.51-.04.08-.08.16-.13.25-.29.58-.6,1.2-.89,1.8l-.15.31c-.32.67-.66,1.37-.96,2.02-.28.59-.54,1.18-.78,1.71-.03.08-.07.15-.1.22-.17.37-.31.71-.43.98-.05.11-.09.21-.13.3.1,0,.21,0,.32.02.23.01.49.02.78.04.1,0,.2,0,.3,0,.34.01.7.02,1.09.03.34,0,.69.02,1.05.02.46,0,.94.01,1.43.02.29,0,.58,0,.87,0h.37c.75,0,1.52,0,2.24-.02.75-.01,1.49-.03,2.14-.05.41-.01.79-.03,1.09-.05.08,0,.16,0,.23-.01-.05-.08-.09-.16-.14-.25-.14-.25-.31-.54-.5-.86-.03-.05-.05-.09-.08-.14-.08-.14-.16-.28-.25-.42l-5.62-6.34Z"/>
  <g>
    <path class="st1" d="M2.03,29.71l10.61-13.13.19.15L2.21,29.86l-.19-.15Z"/>
    <path class="st1" d="M2.81,29.57l10.24-12.37.18.15L3,29.72l-.18-.15Z"/>
    <path class="st1" d="M3.77,29.33l9.52-11.42.18.15L3.95,29.49l-.18-.15Z"/>
    <path class="st1" d="M4.48,29.33l9.09-10.42.18.16-9.09,10.42-.18-.16Z"/>
    <path class="st1" d="M5.19,29.57l8.81-10.23.18.16-8.81,10.23-.18-.16Z"/>
    <path class="st1" d="M6.15,29.57l7.85-9.04.18.16-7.85,9.04-.18-.16Z"/>
    <path class="st1" d="M7.82,28.62l7.14-7.85.18.16-7.14,7.85-.18-.16Z"/>
    <path class="st1" d="M9.01,28.38l6.43-6.9.17.16-6.43,6.9-.17-.16Z"/>
    <path class="st1" d="M10.91,27.19l5-5,.17.17-5,5-.17-.17Z"/>
    <path class="st1" d="M11.39,27.66l5-5,.17.17-5,5-.17-.17Z"/>
    <path class="st1" d="M11.87,28.37l5-5,.17.17-5,5-.17-.17Z"/>
    <path class="st1" d="M12.58,28.61l4.52-4.52.17.17-4.52,4.52-.17-.17Z"/>
    <path class="st1" d="M16.33,20.71l14.16-14.16.17.17-14.16,14.16-.17-.17Z"/>
    <path class="st1" d="M16.71,21.56l14.11-14.44.17.17-14.11,14.44-.17-.17Z"/>
    <path class="st1" d="M17.1,22.19l14.26-14.54.17.17-14.26,14.54-.17-.17Z"/>
    <path class="st1" d="M17.44,23l14.56-14.82.17.17-14.56,14.82-.17-.17Z"/>
    <path class="st1" d="M17.82,23.62l14.52-14.75.17.17-14.52,14.75-.17-.17Z"/>
    <path class="st1" d="M18.17,24.45l14.64-15.11.17.17-14.64,15.11-.17-.17Z"/>
    <path class="st1" d="M18.53,25.28l14.4-15.11.17.16-14.4,15.11-.17-.16Z"/>
    <path class="st1" d="M18.81,25.88l2.62-2.74.17.16-2.62,2.74-.17-.16Z"/>
    <path class="st1" d="M19.05,26.59l2.62-2.74.17.16-2.62,2.74-.17-.16Z"/>
    <path class="st1" d="M19.29,27.54l2.62-2.74.17.16-2.62,2.74-.17-.16Z"/>
    <path class="st1" d="M19.52,28.26l2.62-2.74.17.16-2.62,2.74-.17-.16Z"/>
    <path class="st1" d="M24.52,20.17l4.72-5.12.18.16-4.72,5.12-.17-.16Z"/>
    <path class="st1" d="M25.04,20.89l4.72-5.12.18.16-4.72,5.12-.18-.16Z"/>
    <path class="st1" d="M25.51,21.6l4.72-5.12.17.16-4.72,5.12-.17-.16Z"/>
    <path class="st1" d="M30.7,13.66l2.8-2.91.17.16-2.8,2.91-.17-.16Z"/>
    <path class="st1" d="M31.25,14.16l2.8-2.91.17.16-2.8,2.91-.17-.16Z"/>
    <path class="st1" d="M31.72,14.64l2.8-2.91.17.16-2.8,2.91-.17-.16Z"/>
    <path class="st1" d="M32.2,15.11l2.8-2.91.17.16-2.8,2.91-.17-.16Z"/>
    <path class="st1" d="M32.68,15.59l2.8-2.91.17.16-2.8,2.91-.17-.16Z"/>
    <path class="st1" d="M33.15,16.07l2.8-2.91.17.16-2.8,2.91-.17-.16Z"/>
    <path class="st1" d="M33.63,16.54l2.8-2.91.17.16-2.8,2.91-.17-.16Z"/>
    <path class="st1" d="M45.38,21.18l2.25-2.03.16.18-2.25,2.03-.16-.18Z"/>
    <path class="st1" d="M45.67,21.63l2.25-2.03.16.18-2.25,2.03-.16-.18Z"/>
    <path class="st1" d="M45.96,22.08l2.25-2.03.16.18-2.25,2.03-.16-.18Z"/>
    <path class="st1" d="M46.25,22.53l2.25-2.03.16.18-2.25,2.03-.16-.18Z"/>
    <path class="st1" d="M46.54,22.98l2.25-2.03.16.18-2.25,2.03-.16-.18Z"/>
    <path class="st1" d="M46.83,23.43l2.25-2.03.16.18-2.25,2.03-.16-.18Z"/>
    <path class="st1" d="M47.12,23.88l2.25-2.03.16.18-2.25,2.03-.16-.18Z"/>
    <path class="st1" d="M47.41,24.33l2.25-2.03.16.18-2.25,2.03-.16-.18Z"/>
    <path class="st1" d="M47.7,24.78l2.25-2.03.16.18-2.25,2.03-.16-.18Z"/>
    <path class="st1" d="M47.99,25.23l2.25-2.03.16.18-2.25,2.03-.16-.18Z"/>
    <path class="st1" d="M48.28,25.68l2.25-2.03.16.18-2.25,2.03-.16-.18Z"/>
    <path class="st1" d="M48.57,26.13l2.25-2.03.16.18-2.25,2.03-.16-.18Z"/>
    <path class="st1" d="M48.86,26.58l2.25-2.03.16.18-2.25,2.03-.16-.18Z"/>
    <path class="st1" d="M49.16,27.03l2.25-2.03.16.18-2.25,2.03-.16-.18Z"/>
    <path class="st1" d="M49.45,27.48l2.25-2.03.16.18-2.25,2.03-.16-.18Z"/>
    <path class="st1" d="M49.74,27.93l2.25-2.03.16.18-2.25,2.03-.16-.18Z"/>
    <path class="st1" d="M34.1,17.02l2.8-2.91.17.16-2.8,2.91-.17-.16Z"/>
    <path class="st1" d="M34.58,17.49l2.8-2.91.17.16-2.8,2.91-.17-.16Z"/>
    <path class="st1" d="M26.23,22.08l4.72-5.12.17.16-4.72,5.12-.18-.16Z"/>
    <path class="st1" d="M26.7,22.79l4.72-5.12.17.16-4.72,5.12-.18-.16Z"/>
    <path class="st1" d="M27.18,23.5l4.72-5.12.17.16-4.72,5.12-.18-.16Z"/>
    <path class="st1" d="M27.65,24.22l4.72-5.12.18.16-4.72,5.12-.18-.16Z"/>
    <path class="st1" d="M28.13,24.93l4.72-5.12.17.16-4.72,5.12-.17-.16Z"/>
    <path class="st1" d="M28.61,25.64l4.72-5.12.18.16-4.72,5.12-.18-.16Z"/>
    <path class="st1" d="M29.08,26.36l4.72-5.12.17.16-4.72,5.12-.17-.16Z"/>
    <path class="st1" d="M29.56,27.07l4.72-5.12.18.16-4.72,5.12-.17-.16Z"/>
    <path class="st1" d="M30.03,27.78l4.72-5.12.18.16-4.72,5.12-.18-.16Z"/>
    <path class="st1" d="M30.51,28.5l4.72-5.12.17.16-4.72,5.12-.18-.16Z"/>
    <path class="st1" d="M31.86,28.38l3.85-4.28.18.16-3.85,4.28-.18-.16Z"/>
    <path class="st1" d="M33.84,28.21l2.07-2.21.17.16-2.07,2.21-.17-.16Z"/>
    <path class="st1" d="M33.84,28.21l2.07-2.21.17.16-2.07,2.21-.17-.16Z"/>
    <path class="st1" d="M34.36,28.69l2.07-2.21.17.16-2.07,2.21-.17-.16Z"/>
    <path class="st1" d="M35.43,28.37l1.19-1.19.17.17-1.19,1.19-.17-.17Z"/>
    <path class="st1" d="M35.91,28.61l1.02-.95.16.17-1.02.95-.16-.17Z"/>
    <path class="st1" d="M32.64,28.62l3.85-4.28.18.16-3.85,4.28-.18-.16Z"/>
  </g>
</svg>